  0
SECTION
  2
HEADER
  9
$ANGBASE
  50
0.0
  9
$ANGDIR
  70
1
  9
$MEASUREMENT
  70
1
  0
ENDSEC
  0
SECTION
  2
TABLES
  0
TABLE
  2
LTYPE
  70
4
  0
LTYPE
  5
40F
  2
CONTINUOUS
  70
0
  3
Solid line
  72
65
  73
0
  40
0.0
  0
LTYPE
  5
410
  2
DASHDOT
 70
0
  3
Dash Dot ____ _ ____ _
 72
65
 73
4
 40
2.0
 49
1.25
 49
-0.25
 49
0.25
 49
-0.25
  0
LTYPE
  5
411
  2
DASHED
 70
0
  3
Dashed __ __ __ __ __
 72
65
 73
2
 40
0.75
 49
0.5
 49
-0.25
  0
LTYPE
  5
43B
  2
DOTTED
 70
0
  3
Dotted .  .  .  .
 72
65
 73
2
 40
0.2
 49
0.0
 49
-0.2
  0
ENDTAB
  0
TABLE
  2
STYLE
  70
4
  0
STYLE
  2
KICAD
  70
0
  40
0
  41
1
  42
1
  50
0
  71
0
  3
isocp.shx
  0
STYLE
  2
KICADB
  70
0
  40
0
  41
1
  42
1
  50
0
  71
0
  3
isocp.shx
  0
STYLE
  2
KICADI
  70
0
  40
0
  41
1
  42
1
  50
15
  71
0
  3
isocp.shx
  0
STYLE
  2
KICADBI
  70
0
  40
0
  41
1
  42
1
  50
15
  71
0
  3
isocp.shx
  0
ENDTAB
  0
TABLE
  2
LAYER
  70
1
  0
LAYER
  2
BLACK
  70
0
  62
7
  6
CONTINUOUS
  0
ENDTAB
  0
ENDSEC
  0
SECTION
  2
ENTITIES
0
LINE
8
BLACK
6
CONTINUOUS
10
205.177
20
-117.909
11
218.12
21
-114.441
0
ARC
8
BLACK
10
205.037
20
-119.707
40
0.299999
50
-75.0001
51
14.9999
0
ARC
8
BLACK
10
197.02
20
-121.855
40
0.299999
50
-165
51
-75.0002
0
LINE
8
BLACK
6
CONTINUOUS
10
293.128
20
-67.865
11
324.328
21
-67.865
0
LINE
8
BLACK
6
CONTINUOUS
10
292.828
20
-68.165
11
292.828
21
-87.865
0
LINE
8
BLACK
6
CONTINUOUS
10
301.728
20
-86.465
11
301.728
21
-87.865
0
LINE
8
BLACK
6
CONTINUOUS
10
301.428
20
-88.165
11
293.128
21
-88.165
0
LINE
8
BLACK
6
CONTINUOUS
10
324.628
20
-68.165
11
324.628
21
-87.865
0
LINE
8
BLACK
6
CONTINUOUS
10
315.728
20
-86.465
11
315.728
21
-87.865
0
ARC
8
BLACK
10
324.328
20
-87.865
40
0.3
50
-90
51
-0
0
ARC
8
BLACK
10
316.029
20
-87.865
40
0.3
50
180
51
270
0
ARC
8
BLACK
10
293.128
20
-87.865
40
0.3
50
180
51
270
0
ARC
8
BLACK
10
301.428
20
-87.865
40
0.3
50
-90
51
-0
0
LINE
8
BLACK
6
CONTINUOUS
10
302.029
20
-86.165
11
315.428
21
-86.165
0
LINE
8
BLACK
6
CONTINUOUS
10
316.029
20
-88.165
11
324.328
21
-88.165
0
ARC
8
BLACK
10
293.128
20
-68.165
40
0.3
50
90
51
180
0
ARC
8
BLACK
10
324.328
20
-68.165
40
0.3
50
-0
51
90
0
LINE
8
BLACK
6
CONTINUOUS
10
191.844
20
-102.536
11
221.98
21
-94.4612
0
ARC
8
BLACK
10
-21.91
20
-123.911
40
0.3
50
-90
51
-0
0
ARC
8
BLACK
10
-35.31
20
-123.911
40
0.3
50
180
51
270
0
ARC
8
BLACK
10
-35.31
20
-110.01
40
0.3
50
90
51
180
0
LINE
8
BLACK
6
CONTINUOUS
10
-35.61
20
-123.911
11
-35.61
21
-110.01
0
LINE
8
BLACK
6
CONTINUOUS
10
-21.91
20
-124.21
11
-35.31
21
-124.21
0
LINE
8
BLACK
6
CONTINUOUS
10
-21.61
20
-110.01
11
-21.61
21
-123.911
0
LINE
8
BLACK
6
CONTINUOUS
10
-35.31
20
-109.71
11
-21.91
21
-109.71
0
LINE
8
BLACK
6
CONTINUOUS
10
-16.26
20
-109.71
11
-2.86
21
-109.71
0
LINE
8
BLACK
6
CONTINUOUS
10
-2.56
20
-110.01
11
-2.56
21
-123.911
0
LINE
8
BLACK
6
CONTINUOUS
10
-2.86
20
-124.21
11
-16.26
21
-124.21
0
LINE
8
BLACK
6
CONTINUOUS
10
-16.56
20
-123.911
11
-16.56
21
-110.01
0
ARC
8
BLACK
10
-16.26
20
-110.01
40
0.3
50
90
51
180
0
ARC
8
BLACK
10
-16.26
20
-123.911
40
0.3
50
180
51
270
0
ARC
8
BLACK
10
-2.86
20
-123.911
40
0.3
50
-90
51
-0
0
ARC
8
BLACK
10
-2.86
20
-110.01
40
0.3
50
-0
51
90
0
ARC
8
BLACK
10
16.19
20
-110.01
40
0.3
50
-0
51
90
0
ARC
8
BLACK
10
16.19
20
-123.911
40
0.3
50
-90
51
-0
0
ARC
8
BLACK
10
2.79
20
-123.911
40
0.3
50
180
51
270
0
ARC
8
BLACK
10
2.79
20
-110.01
40
0.3
50
90
51
180
0
LINE
8
BLACK
6
CONTINUOUS
10
2.49
20
-123.911
11
2.49
21
-110.01
0
LINE
8
BLACK
6
CONTINUOUS
10
16.19
20
-124.21
11
2.79
21
-124.21
0
LINE
8
BLACK
6
CONTINUOUS
10
16.49
20
-110.01
11
16.49
21
-123.911
0
LINE
8
BLACK
6
CONTINUOUS
10
2.79
20
-109.71
11
16.19
21
-109.71
0
LINE
8
BLACK
6
CONTINUOUS
10
303.457
20
-33.515
11
316.856
21
-33.515
0
LINE
8
BLACK
6
CONTINUOUS
10
317.156
20
-33.815
11
317.156
21
-47.715
0
LINE
8
BLACK
6
CONTINUOUS
10
316.856
20
-48.015
11
303.457
21
-48.015
0
LINE
8
BLACK
6
CONTINUOUS
10
303.156
20
-47.715
11
303.156
21
-33.815
0
ARC
8
BLACK
10
303.457
20
-33.815
40
0.3
50
90
51
180
0
ARC
8
BLACK
10
303.457
20
-47.715
40
0.3
50
180
51
270
0
ARC
8
BLACK
10
316.856
20
-47.715
40
0.299999
50
-90
51
-0
0
ARC
8
BLACK
10
316.856
20
-33.815
40
0.3
50
-0
51
90
0
ARC
8
BLACK
10
297.806
20
-33.815
40
0.3
50
-0
51
90
0
ARC
8
BLACK
10
297.806
20
-47.715
40
0.299999
50
-90
51
-0
0
ARC
8
BLACK
10
284.406
20
-47.715
40
0.3
50
180
51
270
0
ARC
8
BLACK
10
284.406
20
-33.815
40
0.3
50
90
51
180
0
LINE
8
BLACK
6
CONTINUOUS
10
284.106
20
-47.715
11
284.106
21
-33.815
0
LINE
8
BLACK
6
CONTINUOUS
10
297.806
20
-48.015
11
284.406
21
-48.015
0
LINE
8
BLACK
6
CONTINUOUS
10
298.106
20
-33.815
11
298.106
21
-47.715
0
LINE
8
BLACK
6
CONTINUOUS
10
284.406
20
-33.515
11
297.806
21
-33.515
0
LINE
8
BLACK
6
CONTINUOUS
10
265.356
20
-33.515
11
278.756
21
-33.515
0
LINE
8
BLACK
6
CONTINUOUS
10
279.056
20
-33.815
11
279.056
21
-47.715
0
LINE
8
BLACK
6
CONTINUOUS
10
278.756
20
-48.015
11
265.356
21
-48.015
0
LINE
8
BLACK
6
CONTINUOUS
10
265.056
20
-47.715
11
265.056
21
-33.815
0
ARC
8
BLACK
10
265.356
20
-33.815
40
0.3
50
90
51
180
0
ARC
8
BLACK
10
265.356
20
-47.715
40
0.3
50
180
51
270
0
ARC
8
BLACK
10
278.756
20
-47.715
40
0.299999
50
-90
51
-0
0
ARC
8
BLACK
10
278.756
20
-33.815
40
0.3
50
-0
51
90
0
ARC
8
BLACK
10
259.707
20
-32.8625
40
0.3
50
-0
51
90
0
ARC
8
BLACK
10
259.707
20
-46.7625
40
0.299999
50
-90
51
-0
0
ARC
8
BLACK
10
246.306
20
-46.7625
40
0.3
50
180
51
270
0
ARC
8
BLACK
10
246.306
20
-32.8625
40
0.3
50
90
51
180
0
LINE
8
BLACK
6
CONTINUOUS
10
246.006
20
-46.7625
11
246.006
21
-32.8625
0
LINE
8
BLACK
6
CONTINUOUS
10
259.707
20
-47.0625
11
246.306
21
-47.0625
0
LINE
8
BLACK
6
CONTINUOUS
10
260.006
20
-32.8625
11
260.006
21
-46.7625
0
LINE
8
BLACK
6
CONTINUOUS
10
246.306
20
-32.5625
11
259.707
21
-32.5625
0
LINE
8
BLACK
6
CONTINUOUS
10
255.832
20
-52.565
11
269.231
21
-52.565
0
LINE
8
BLACK
6
CONTINUOUS
10
269.531
20
-52.865
11
269.531
21
-66.765
0
LINE
8
BLACK
6
CONTINUOUS
10
269.231
20
-67.065
11
255.832
21
-67.065
0
LINE
8
BLACK
6
CONTINUOUS
10
255.531
20
-66.765
11
255.531
21
-52.865
0
ARC
8
BLACK
10
255.832
20
-52.865
40
0.3
50
90
51
180
0
ARC
8
BLACK
10
255.832
20
-66.765
40
0.3
50
180
51
270
0
ARC
8
BLACK
10
269.231
20
-66.765
40
0.3
50
-90
51
-0
0
ARC
8
BLACK
10
269.231
20
-52.865
40
0.3
50
-0
51
90
0
ARC
8
BLACK
10
288.281
20
-52.865
40
0.3
50
-0
51
90
0
ARC
8
BLACK
10
288.281
20
-66.765
40
0.3
50
-90
51
-0
0
ARC
8
BLACK
10
274.881
20
-66.765
40
0.300001
50
180
51
270
0
ARC
8
BLACK
10
274.881
20
-52.865
40
0.3
50
90
51
180
0
LINE
8
BLACK
6
CONTINUOUS
10
274.582
20
-66.765
11
274.582
21
-52.865
0
LINE
8
BLACK
6
CONTINUOUS
10
288.281
20
-67.065
11
274.881
21
-67.065
0
LINE
8
BLACK
6
CONTINUOUS
10
288.582
20
-52.865
11
288.582
21
-66.765
0
LINE
8
BLACK
6
CONTINUOUS
10
274.881
20
-52.565
11
288.281
21
-52.565
0
LINE
8
BLACK
6
CONTINUOUS
10
301.075
20
-52.565
11
314.476
21
-52.565
0
LINE
8
BLACK
6
CONTINUOUS
10
314.775
20
-52.865
11
314.775
21
-66.765
0
LINE
8
BLACK
6
CONTINUOUS
10
314.476
20
-67.065
11
301.075
21
-67.065
0
LINE
8
BLACK
6
CONTINUOUS
10
300.775
20
-66.765
11
300.775
21
-52.865
0
ARC
8
BLACK
10
301.075
20
-52.865
40
0.3
50
90
51
180
0
ARC
8
BLACK
10
301.075
20
-66.765
40
0.3
50
180
51
270
0
ARC
8
BLACK
10
314.476
20
-66.765
40
0.3
50
-90
51
-0
0
ARC
8
BLACK
10
314.476
20
-52.865
40
0.3
50
-0
51
90
0
LINE
8
BLACK
6
CONTINUOUS
10
271.072
20
-71.615
11
284.471
21
-71.615
0
LINE
8
BLACK
6
CONTINUOUS
10
284.772
20
-71.915
11
284.772
21
-85.815
0
LINE
8
BLACK
6
CONTINUOUS
10
284.471
20
-86.115
11
271.072
21
-86.115
0
LINE
8
BLACK
6
CONTINUOUS
10
270.772
20
-85.815
11
270.772
21
-71.915
0
ARC
8
BLACK
10
271.072
20
-71.915
40
0.3
50
90
51
180
0
ARC
8
BLACK
10
271.072
20
-85.815
40
0.3
50
180
51
270
0
ARC
8
BLACK
10
284.471
20
-85.815
40
0.3
50
-90
51
-0
0
ARC
8
BLACK
10
284.471
20
-71.915
40
0.3
50
-0
51
90
0
ARC
8
BLACK
10
265.421
20
-71.915
40
0.3
50
-0
51
90
0
ARC
8
BLACK
10
265.421
20
-85.815
40
0.3
50
-90
51
-0
0
ARC
8
BLACK
10
252.022
20
-85.815
40
0.3
50
180
51
270
0
ARC
8
BLACK
10
252.022
20
-71.915
40
0.3
50
90
51
180
0
LINE
8
BLACK
6
CONTINUOUS
10
251.721
20
-85.815
11
251.721
21
-71.915
0
LINE
8
BLACK
6
CONTINUOUS
10
265.421
20
-86.115
11
252.022
21
-86.115
0
LINE
8
BLACK
6
CONTINUOUS
10
265.721
20
-71.915
11
265.721
21
-85.815
0
LINE
8
BLACK
6
CONTINUOUS
10
252.022
20
-71.615
11
265.421
21
-71.615
0
LINE
8
BLACK
6
CONTINUOUS
10
270.119
20
-90.665
11
283.519
21
-90.665
0
LINE
8
BLACK
6
CONTINUOUS
10
283.82
20
-90.965
11
283.82
21
-104.865
0
LINE
8
BLACK
6
CONTINUOUS
10
283.519
20
-105.165
11
270.119
21
-105.165
0
LINE
8
BLACK
6
CONTINUOUS
10
269.82
20
-104.865
11
269.82
21
-90.965
0
ARC
8
BLACK
10
270.119
20
-90.965
40
0.3
50
90
51
180
0
ARC
8
BLACK
10
270.119
20
-104.865
40
0.300001
50
180
51
270
0
ARC
8
BLACK
10
283.519
20
-104.865
40
0.3
50
-90
51
-0
0
ARC
8
BLACK
10
283.519
20
-90.965
40
0.3
50
-0
51
90
0
ARC
8
BLACK
10
302.57
20
-90.965
40
0.3
50
-0
51
90
0
ARC
8
BLACK
10
302.57
20
-104.865
40
0.3
50
-90
51
-0
0
ARC
8
BLACK
10
289.169
20
-104.865
40
0.3
50
180
51
270
0
ARC
8
BLACK
10
289.169
20
-90.965
40
0.3
50
90
51
180
0
LINE
8
BLACK
6
CONTINUOUS
10
288.869
20
-104.865
11
288.869
21
-90.965
0
LINE
8
BLACK
6
CONTINUOUS
10
302.57
20
-105.165
11
289.169
21
-105.165
0
LINE
8
BLACK
6
CONTINUOUS
10
302.869
20
-90.965
11
302.869
21
-104.865
0
LINE
8
BLACK
6
CONTINUOUS
10
289.169
20
-90.665
11
302.57
21
-90.665
0
LINE
8
BLACK
6
CONTINUOUS
10
308.219
20
-90.665
11
321.619
21
-90.665
0
LINE
8
BLACK
6
CONTINUOUS
10
321.919
20
-90.965
11
321.919
21
-104.865
0
LINE
8
BLACK
6
CONTINUOUS
10
321.619
20
-105.165
11
308.219
21
-105.165
0
LINE
8
BLACK
6
CONTINUOUS
10
307.919
20
-104.865
11
307.919
21
-90.965
0
ARC
8
BLACK
10
308.219
20
-90.965
40
0.3
50
90
51
180
0
ARC
8
BLACK
10
308.219
20
-104.865
40
0.3
50
180
51
270
0
ARC
8
BLACK
10
321.619
20
-104.865
40
0.3
50
-90
51
-0
0
ARC
8
BLACK
10
321.619
20
-90.965
40
0.3
50
-0
51
90
0
ARC
8
BLACK
10
321.619
20
-110.015
40
0.3
50
-0
51
90
0
ARC
8
BLACK
10
321.619
20
-123.915
40
0.299999
50
-90
51
-0
0
ARC
8
BLACK
10
308.219
20
-123.915
40
0.3
50
180
51
270
0
ARC
8
BLACK
10
308.219
20
-110.015
40
0.3
50
90
51
180
0
LINE
8
BLACK
6
CONTINUOUS
10
307.919
20
-123.915
11
307.919
21
-110.015
0
LINE
8
BLACK
6
CONTINUOUS
10
321.619
20
-124.215
11
308.219
21
-124.215
0
LINE
8
BLACK
6
CONTINUOUS
10
321.919
20
-110.015
11
321.919
21
-123.915
0
LINE
8
BLACK
6
CONTINUOUS
10
308.219
20
-109.715
11
321.619
21
-109.715
0
LINE
8
BLACK
6
CONTINUOUS
10
289.169
20
-109.715
11
302.57
21
-109.715
0
LINE
8
BLACK
6
CONTINUOUS
10
302.869
20
-110.015
11
302.869
21
-123.915
0
LINE
8
BLACK
6
CONTINUOUS
10
302.57
20
-124.215
11
289.169
21
-124.215
0
LINE
8
BLACK
6
CONTINUOUS
10
288.869
20
-123.915
11
288.869
21
-110.015
0
ARC
8
BLACK
10
289.169
20
-110.015
40
0.3
50
90
51
180
0
ARC
8
BLACK
10
289.169
20
-123.915
40
0.3
50
180
51
270
0
ARC
8
BLACK
10
302.57
20
-123.915
40
0.299999
50
-90
51
-0
0
ARC
8
BLACK
10
302.57
20
-110.015
40
0.3
50
-0
51
90
0
ARC
8
BLACK
10
283.519
20
-110.015
40
0.3
50
-0
51
90
0
ARC
8
BLACK
10
283.519
20
-123.915
40
0.299999
50
-90
51
-0
0
ARC
8
BLACK
10
270.119
20
-123.915
40
0.300001
50
180
51
270
0
ARC
8
BLACK
10
270.119
20
-110.015
40
0.3
50
90
51
180
0
LINE
8
BLACK
6
CONTINUOUS
10
269.82
20
-123.915
11
269.82
21
-110.015
0
LINE
8
BLACK
6
CONTINUOUS
10
283.519
20
-124.215
11
270.119
21
-124.215
0
LINE
8
BLACK
6
CONTINUOUS
10
283.82
20
-110.015
11
283.82
21
-123.915
0
LINE
8
BLACK
6
CONTINUOUS
10
270.119
20
-109.715
11
283.519
21
-109.715
0
ARC
8
BLACK
10
202.492
20
-124.195
40
0.299998
50
15.0001
51
105
0
ARC
8
BLACK
10
206.089
20
-137.621
40
0.299999
50
-75.0001
51
14.9999
0
ARC
8
BLACK
10
193.147
20
-141.09
40
0.299999
50
-165
51
-75
0
ARC
8
BLACK
10
189.548
20
-127.663
40
0.3
50
105
51
195
0
LINE
8
BLACK
6
CONTINUOUS
10
192.856
20
-141.167
11
189.26
21
-127.741
0
LINE
8
BLACK
6
CONTINUOUS
10
206.167
20
-137.911
11
193.224
21
-141.379
0
LINE
8
BLACK
6
CONTINUOUS
10
202.781
20
-124.117
11
206.379
21
-137.544
0
LINE
8
BLACK
6
CONTINUOUS
10
189.471
20
-127.373
11
202.415
21
-123.905
0
LINE
8
BLACK
6
CONTINUOUS
10
171.507
20
-111.873
11
184.451
21
-108.405
0
LINE
8
BLACK
6
CONTINUOUS
10
184.819
20
-108.617
11
188.415
21
-122.043
0
LINE
8
BLACK
6
CONTINUOUS
10
188.203
20
-122.41
11
175.26
21
-125.879
0
LINE
8
BLACK
6
CONTINUOUS
10
174.893
20
-125.667
11
171.296
21
-112.24
0
ARC
8
BLACK
10
171.585
20
-112.163
40
0.3
50
105
51
195
0
ARC
8
BLACK
10
175.183
20
-125.589
40
0.299999
50
-165
51
-75
0
ARC
8
BLACK
10
188.126
20
-122.121
40
0.299999
50
-75.0001
51
14.9999
0
ARC
8
BLACK
10
184.528
20
-108.694
40
0.299998
50
15.0001
51
105
0
LINE
8
BLACK
6
CONTINUOUS
10
233.763
20
-95.7727
11
246.706
21
-92.3045
0
LINE
8
BLACK
6
CONTINUOUS
10
247.075
20
-92.5167
11
250.671
21
-105.943
0
LINE
8
BLACK
6
CONTINUOUS
10
250.459
20
-106.31
11
237.516
21
-109.779
0
LINE
8
BLACK
6
CONTINUOUS
10
237.148
20
-109.566
11
233.551
21
-96.1401
0
ARC
8
BLACK
10
233.841
20
-96.0625
40
0.3
50
105
51
195
0
ARC
8
BLACK
10
237.438
20
-109.489
40
0.299999
50
-165
51
-75
0
ARC
8
BLACK
10
250.382
20
-106.021
40
0.299999
50
-75.0001
51
14.9999
0
ARC
8
BLACK
10
246.784
20
-92.5943
40
0.299998
50
15.0001
51
105
0
ARC
8
BLACK
10
240.224
20
-73.6419
40
0.299998
50
15
51
105
0
ARC
8
BLACK
10
243.821
20
-87.0683
40
0.299999
50
-75.0001
51
14.9999
0
ARC
8
BLACK
10
230.877
20
-90.5365
40
0.299999
50
-165
51
-75
0
ARC
8
BLACK
10
227.28
20
-77.1101
40
0.3
50
105
51
195
0
LINE
8
BLACK
6
CONTINUOUS
10
230.587
20
-90.6141
11
226.99
21
-77.1878
0
LINE
8
BLACK
6
CONTINUOUS
10
243.898
20
-87.3581
11
230.956
21
-90.8263
0
LINE
8
BLACK
6
CONTINUOUS
10
240.513
20
-73.5643
11
244.111
21
-86.9907
0
LINE
8
BLACK
6
CONTINUOUS
10
227.202
20
-76.8203
11
240.145
21
-73.3522
0
LINE
8
BLACK
6
CONTINUOUS
10
208.8
20
-81.7543
11
221.743
21
-78.2861
0
LINE
8
BLACK
6
CONTINUOUS
10
222.111
20
-78.4983
11
225.708
21
-91.9246
0
LINE
8
BLACK
6
CONTINUOUS
10
225.496
20
-92.292
11
212.553
21
-95.7602
0
LINE
8
BLACK
6
CONTINUOUS
10
212.185
20
-95.5481
11
208.588
21
-82.1217
0
ARC
8
BLACK
10
208.877
20
-82.0441
40
0.3
50
105
51
195
0
ARC
8
BLACK
10
212.475
20
-95.4704
40
0.299999
50
-165
51
-75
0
ARC
8
BLACK
10
225.418
20
-92.0023
40
0.299999
50
-75.0001
51
14.9999
0
ARC
8
BLACK
10
221.821
20
-78.5759
40
0.299998
50
15.0001
51
105
0
ARC
8
BLACK
10
203.418
20
-83.5099
40
0.299998
50
15.0001
51
105
0
ARC
8
BLACK
10
207.016
20
-96.9362
40
0.299999
50
-75.0001
51
14.9999
0
ARC
8
BLACK
10
194.073
20
-100.404
40
0.299998
50
-165
51
-74.9999
0
ARC
8
BLACK
10
190.475
20
-86.978
40
0.3
50
105
51
195
0
LINE
8
BLACK
6
CONTINUOUS
10
193.784
20
-100.482
11
190.185
21
-87.0557
0
LINE
8
BLACK
6
CONTINUOUS
10
207.094
20
-97.226
11
194.15
21
-100.694
0
LINE
8
BLACK
6
CONTINUOUS
10
203.708
20
-83.4322
11
207.306
21
-96.8586
0
LINE
8
BLACK
6
CONTINUOUS
10
190.397
20
-86.6883
11
203.341
21
-83.2201
0
LINE
8
BLACK
6
CONTINUOUS
10
171.995
20
-91.6222
11
184.939
21
-88.154
0
LINE
8
BLACK
6
CONTINUOUS
10
185.306
20
-88.3662
11
188.903
21
-101.792
0
LINE
8
BLACK
6
CONTINUOUS
10
188.691
20
-102.16
11
175.748
21
-105.628
0
LINE
8
BLACK
6
CONTINUOUS
10
175.381
20
-105.416
11
171.784
21
-91.9896
0
ARC
8
BLACK
10
172.073
20
-91.912
40
0.3
50
105
51
195
0
ARC
8
BLACK
10
175.671
20
-105.338
40
0.299999
50
-165
51
-75
0
ARC
8
BLACK
10
188.614
20
-101.87
40
0.299999
50
-75.0001
51
14.9999
0
ARC
8
BLACK
10
185.016
20
-88.4438
40
0.299998
50
15.0001
51
105
0
ARC
8
BLACK
10
189.284
20
-67.5745
40
0.299998
50
15.0001
51
105
0
ARC
8
BLACK
10
192.881
20
-81.0009
40
0.299999
50
-74.9999
51
15.0001
0
ARC
8
BLACK
10
179.938
20
-84.4691
40
0.299999
50
-165
51
-75
0
ARC
8
BLACK
10
176.34
20
-71.0427
40
0.3
50
105
51
195
0
LINE
8
BLACK
6
CONTINUOUS
10
179.648
20
-84.5467
11
176.05
21
-71.1204
0
LINE
8
BLACK
6
CONTINUOUS
10
192.959
20
-81.2907
11
180.016
21
-84.7589
0
LINE
8
BLACK
6
CONTINUOUS
10
189.573
20
-67.4969
11
193.171
21
-80.9233
0
LINE
8
BLACK
6
CONTINUOUS
10
176.262
20
-70.7529
11
189.207
21
-67.2848
0
LINE
8
BLACK
6
CONTINUOUS
10
194.665
20
-65.819
11
207.608
21
-62.3508
0
LINE
8
BLACK
6
CONTINUOUS
10
207.975
20
-62.5629
11
211.573
21
-75.9893
0
LINE
8
BLACK
6
CONTINUOUS
10
211.361
20
-76.3567
11
198.417
21
-79.8249
0
LINE
8
BLACK
6
CONTINUOUS
10
198.05
20
-79.6128
11
194.452
21
-66.1864
0
ARC
8
BLACK
10
194.742
20
-66.1088
40
0.3
50
105
51
195
0
ARC
8
BLACK
10
198.34
20
-79.5351
40
0.299998
50
-165
51
-74.9999
0
ARC
8
BLACK
10
211.284
20
-76.0669
40
0.299999
50
-75.0001
51
14.9999
0
ARC
8
BLACK
10
207.686
20
-62.6406
40
0.299998
50
15.0001
51
105
0
ARC
8
BLACK
10
226.088
20
-57.7066
40
0.299998
50
15.0001
51
105
0
ARC
8
BLACK
10
229.686
20
-71.133
40
0.299999
50
-75.0001
51
14.9999
0
ARC
8
BLACK
10
216.742
20
-74.6012
40
0.299999
50
-165
51
-74.9998
0
ARC
8
BLACK
10
213.145
20
-61.1748
40
0.3
50
105
51
195
0
LINE
8
BLACK
6
CONTINUOUS
10
216.452
20
-74.6788
11
212.855
21
-61.2524
0
LINE
8
BLACK
6
CONTINUOUS
10
229.763
20
-71.4228
11
216.82
21
-74.8909
0
LINE
8
BLACK
6
CONTINUOUS
10
226.379
20
-57.629
11
229.975
21
-71.0553
0
LINE
8
BLACK
6
CONTINUOUS
10
213.067
20
-60.885
11
226.01
21
-57.4168
0
LINE
8
BLACK
6
CONTINUOUS
10
231.469
20
-55.9511
11
244.413
21
-52.4829
0
LINE
8
BLACK
6
CONTINUOUS
10
244.78
20
-52.695
11
248.379
21
-66.1214
0
LINE
8
BLACK
6
CONTINUOUS
10
248.166
20
-66.4888
11
235.222
21
-69.957
0
LINE
8
BLACK
6
CONTINUOUS
10
234.855
20
-69.7448
11
231.257
21
-56.3185
0
ARC
8
BLACK
10
231.547
20
-56.2408
40
0.3
50
105
51
195
0
ARC
8
BLACK
10
235.144
20
-69.6672
40
0.299999
50
-165
51
-75
0
ARC
8
BLACK
10
248.088
20
-66.199
40
0.299999
50
-75.0001
51
14.9999
0
ARC
8
BLACK
10
244.49
20
-52.7727
40
0.299998
50
15.0001
51
105
0
ARC
8
BLACK
10
234.956
20
-35.6039
40
0.299998
50
15.0001
51
105
0
ARC
8
BLACK
10
238.553
20
-49.0302
40
0.299999
50
-75.0001
51
14.9999
0
ARC
8
BLACK
10
225.611
20
-52.4984
40
0.299999
50
-165
51
-75
0
ARC
8
BLACK
10
222.012
20
-39.0721
40
0.3
50
105
51
195
0
LINE
8
BLACK
6
CONTINUOUS
10
225.32
20
-52.5761
11
221.724
21
-39.1497
0
LINE
8
BLACK
6
CONTINUOUS
10
238.631
20
-49.32
11
225.688
21
-52.7882
0
LINE
8
BLACK
6
CONTINUOUS
10
235.246
20
-35.5262
11
238.843
21
-48.9526
0
LINE
8
BLACK
6
CONTINUOUS
10
221.935
20
-38.7823
11
234.879
21
-35.3141
0
LINE
8
BLACK
6
CONTINUOUS
10
203.532
20
-43.7162
11
216.476
21
-40.248
0
LINE
8
BLACK
6
CONTINUOUS
10
216.843
20
-40.4602
11
220.441
21
-53.8866
0
LINE
8
BLACK
6
CONTINUOUS
10
220.23
20
-54.254
11
207.285
21
-57.7221
0
LINE
8
BLACK
6
CONTINUOUS
10
206.918
20
-57.51
11
203.32
21
-44.0836
0
ARC
8
BLACK
10
203.611
20
-44.006
40
0.3
50
105
51
195
0
ARC
8
BLACK
10
207.208
20
-57.4324
40
0.299999
50
-165
51
-75
0
ARC
8
BLACK
10
220.151
20
-53.9642
40
0.299999
50
-75.0001
51
14.9999
0
ARC
8
BLACK
10
216.553
20
-40.5378
40
0.299998
50
15.0001
51
105
0
ARC
8
BLACK
10
198.151
20
-45.4718
40
0.299998
50
15.0001
51
105
0
ARC
8
BLACK
10
201.749
20
-58.8981
40
0.299999
50
-75.0001
51
14.9999
0
ARC
8
BLACK
10
188.805
20
-62.3663
40
0.299999
50
-165
51
-75
0
ARC
8
BLACK
10
185.208
20
-48.94
40
0.3
50
105
51
195
0
LINE
8
BLACK
6
CONTINUOUS
10
188.516
20
-62.444
11
184.918
21
-49.0176
0
LINE
8
BLACK
6
CONTINUOUS
10
201.826
20
-59.1879
11
188.883
21
-62.6561
0
LINE
8
BLACK
6
CONTINUOUS
10
198.441
20
-45.3941
11
202.038
21
-58.8205
0
LINE
8
BLACK
6
CONTINUOUS
10
185.13
20
-48.6502
11
198.073
21
-45.182
0
LINE
8
BLACK
6
CONTINUOUS
10
166.728
20
-53.5841
11
179.671
21
-50.116
0
LINE
8
BLACK
6
CONTINUOUS
10
180.04
20
-50.3281
11
183.636
21
-63.7545
0
LINE
8
BLACK
6
CONTINUOUS
10
183.424
20
-64.1219
11
170.481
21
-67.5901
0
LINE
8
BLACK
6
CONTINUOUS
10
170.113
20
-67.3779
11
166.516
21
-53.9515
0
ARC
8
BLACK
10
166.805
20
-53.8739
40
0.3
50
105
51
195
0
ARC
8
BLACK
10
170.403
20
-67.3003
40
0.299999
50
-165
51
-75
0
ARC
8
BLACK
10
183.346
20
-63.8321
40
0.299999
50
-75.0001
51
14.9999
0
ARC
8
BLACK
10
179.749
20
-50.4057
40
0.299998
50
15.0001
51
105
0
ARC
8
BLACK
10
56.1445
20
-36.6985
40
0.299999
50
-14.9999
51
75.0001
0
ARC
8
BLACK
10
52.5465
20
-50.1249
40
0.299999
50
-105
51
-15.0001
0
ARC
8
BLACK
10
39.6035
20
-46.6567
40
0.3
50
165
51
255
0
ARC
8
BLACK
10
43.2005
20
-33.2303
40
0.3
50
75.0001
51
165
0
LINE
8
BLACK
6
CONTINUOUS
10
39.3135
20
-46.579
11
42.9115
21
-33.1527
0
LINE
8
BLACK
6
CONTINUOUS
10
52.4695
20
-50.4146
11
39.5255
21
-46.9465
0
LINE
8
BLACK
6
CONTINUOUS
10
56.4345
20
-36.7761
11
52.8365
21
-50.2025
0
LINE
8
BLACK
6
CONTINUOUS
10
43.2785
20
-32.9405
11
56.2215
21
-36.4087
0
LINE
8
BLACK
6
CONTINUOUS
10
61.6805
20
-37.8745
11
74.6245
21
-41.3427
0
LINE
8
BLACK
6
CONTINUOUS
10
74.8365
20
-41.7101
11
71.2385
21
-55.1365
0
LINE
8
BLACK
6
CONTINUOUS
10
70.8715
20
-55.3486
11
57.9275
21
-51.8804
0
LINE
8
BLACK
6
CONTINUOUS
10
57.7155
20
-51.513
11
61.3135
21
-38.0866
0
ARC
8
BLACK
10
61.6035
20
-38.1643
40
0.3
50
75.0001
51
165
0
ARC
8
BLACK
10
58.0055
20
-51.5907
40
0.3
50
165
51
255
0
ARC
8
BLACK
10
70.9495
20
-55.0588
40
0.299999
50
-105
51
-15.0001
0
ARC
8
BLACK
10
74.5465
20
-41.6325
40
0.299999
50
-14.9999
51
75.0001
0
ARC
8
BLACK
10
92.9485
20
-46.5664
40
0.299999
50
-14.9999
51
75.0001
0
ARC
8
BLACK
10
89.3515
20
-59.9928
40
0.299999
50
-105
51
-15.0001
0
ARC
8
BLACK
10
76.4075
20
-56.5246
40
0.3
50
165
51
255
0
ARC
8
BLACK
10
80.0055
20
-43.0982
40
0.3
50
75.0001
51
165
0
LINE
8
BLACK
6
CONTINUOUS
10
76.1185
20
-56.447
11
79.7155
21
-43.0206
0
LINE
8
BLACK
6
CONTINUOUS
10
89.2735
20
-60.2826
11
76.3305
21
-56.8144
0
LINE
8
BLACK
6
CONTINUOUS
10
93.2385
20
-46.6441
11
89.6415
21
-60.0704
0
LINE
8
BLACK
6
CONTINUOUS
10
80.0835
20
-42.8085
11
93.0265
21
-46.2766
0
LINE
8
BLACK
6
CONTINUOUS
10
98.4855
20
-47.7424
11
111.428
21
-51.2106
0
LINE
8
BLACK
6
CONTINUOUS
10
111.641
20
-51.578
11
108.043
21
-65.0044
0
LINE
8
BLACK
6
CONTINUOUS
10
107.676
20
-65.2165
11
94.7325
21
-61.7484
0
LINE
8
BLACK
6
CONTINUOUS
10
94.5205
20
-61.3809
11
98.1185
21
-47.9546
0
ARC
8
BLACK
10
98.4075
20
-48.0322
40
0.3
50
75.0001
51
165
0
ARC
8
BLACK
10
94.8105
20
-61.4586
40
0.3
50
165
51
255
0
ARC
8
BLACK
10
107.753
20
-64.9268
40
0.299999
50
-105
51
-15.0001
0
ARC
8
BLACK
10
111.352
20
-51.5004
40
0.299999
50
-14.9999
51
75.0001
0
ARC
8
BLACK
10
111.017
20
-71.1362
40
0.299999
50
-14.9999
51
75.0001
0
ARC
8
BLACK
10
107.42
20
-84.5625
40
0.299999
50
-105
51
-15.0001
0
ARC
8
BLACK
10
94.4765
20
-81.0944
40
0.3
50
165
51
255
0
ARC
8
BLACK
10
98.0745
20
-67.668
40
0.3
50
75.0001
51
165
0
LINE
8
BLACK
6
CONTINUOUS
10
94.1875
20
-81.0167
11
97.7845
21
-67.5904
0
LINE
8
BLACK
6
CONTINUOUS
10
107.343
20
-84.8523
11
94.3995
21
-81.3841
0
LINE
8
BLACK
6
CONTINUOUS
10
111.307
20
-71.2138
11
107.71
21
-84.6402
0
LINE
8
BLACK
6
CONTINUOUS
10
98.1525
20
-67.3782
11
111.096
21
-70.8464
0
LINE
8
BLACK
6
CONTINUOUS
10
79.7495
20
-62.4443
11
92.6935
21
-65.9124
0
LINE
8
BLACK
6
CONTINUOUS
10
92.9055
20
-66.2799
11
89.3075
21
-79.7062
0
LINE
8
BLACK
6
CONTINUOUS
10
88.9405
20
-79.9184
11
75.9965
21
-76.4502
0
LINE
8
BLACK
6
CONTINUOUS
10
75.7845
20
-76.0828
11
79.3825
21
-62.6564
0
ARC
8
BLACK
10
79.6725
20
-62.734
40
0.3
50
75.0001
51
165
0
ARC
8
BLACK
10
76.0745
20
-76.1604
40
0.3
50
165
51
255
0
ARC
8
BLACK
10
89.0175
20
-79.6286
40
0.299999
50
-105
51
-15.0001
0
ARC
8
BLACK
10
92.6155
20
-66.2022
40
0.299999
50
-14.9999
51
75.0001
0
ARC
8
BLACK
10
74.2135
20
-61.2683
40
0.299999
50
-14.9999
51
75.0001
0
ARC
8
BLACK
10
70.6155
20
-74.6946
40
0.299999
50
-105
51
-15.0001
0
ARC
8
BLACK
10
57.6725
20
-71.2264
40
0.3
50
165
51
255
0
ARC
8
BLACK
10
61.2695
20
-57.8001
40
0.3
50
75.0001
51
165
0
LINE
8
BLACK
6
CONTINUOUS
10
57.3825
20
-71.1488
11
60.9805
21
-57.7224
0
LINE
8
BLACK
6
CONTINUOUS
10
70.5385
20
-74.9844
11
57.5945
21
-71.5162
0
LINE
8
BLACK
6
CONTINUOUS
10
74.5035
20
-61.3459
11
70.9055
21
-74.7723
0
LINE
8
BLACK
6
CONTINUOUS
10
61.3475
20
-57.5103
11
74.2905
21
-60.9785
0
LINE
8
BLACK
6
CONTINUOUS
10
42.9455
20
-52.5763
11
55.8885
21
-56.0445
0
LINE
8
BLACK
6
CONTINUOUS
10
56.1005
20
-56.4119
11
52.5035
21
-69.8383
0
LINE
8
BLACK
6
CONTINUOUS
10
52.1355
20
-70.0504
11
39.1925
21
-66.5823
0
LINE
8
BLACK
6
CONTINUOUS
10
38.9805
20
-66.2148
11
42.5775
21
-52.7885
0
ARC
8
BLACK
10
42.8675
20
-52.8661
40
0.3
50
75.0001
51
165
0
ARC
8
BLACK
10
39.2695
20
-66.2925
40
0.3
50
165
51
255
0
ARC
8
BLACK
10
52.2135
20
-69.7607
40
0.299999
50
-105
51
-15.0001
0
ARC
8
BLACK
10
55.8105
20
-56.3343
40
0.299999
50
-14.9999
51
75.0001
0
LINE
8
BLACK
6
CONTINUOUS
10
47.2125
20
-73.4456
11
60.1555
21
-76.9138
0
LINE
8
BLACK
6
CONTINUOUS
10
60.3675
20
-77.2812
11
56.7705
21
-90.7076
0
LINE
8
BLACK
6
CONTINUOUS
10
56.4025
20
-90.9197
11
43.4595
21
-87.4515
0
LINE
8
BLACK
6
CONTINUOUS
10
43.2475
20
-87.0841
11
46.8445
21
-73.6577
0
ARC
8
BLACK
10
47.1345
20
-73.7354
40
0.3
50
75.0001
51
165
0
ARC
8
BLACK
10
43.5375
20
-87.1618
40
0.3
50
165
51
255
0
ARC
8
BLACK
10
56.4805
20
-90.6299
40
0.299999
50
-105
51
-15.0001
0
ARC
8
BLACK
10
60.0785
20
-77.2036
40
0.299999
50
-14.9999
51
75.0001
0
ARC
8
BLACK
10
78.4805
20
-82.1375
40
0.299999
50
-14.9999
51
75.0001
0
ARC
8
BLACK
10
74.8825
20
-95.5639
40
0.299999
50
-105
51
-15.0001
0
ARC
8
BLACK
10
61.9395
20
-92.0957
40
0.3
50
165
51
255
0
ARC
8
BLACK
10
65.5375
20
-78.6693
40
0.3
50
75.0001
51
165
0
LINE
8
BLACK
6
CONTINUOUS
10
61.6495
20
-92.0181
11
65.2475
21
-78.5917
0
LINE
8
BLACK
6
CONTINUOUS
10
74.8055
20
-95.8537
11
61.8615
21
-92.3855
0
LINE
8
BLACK
6
CONTINUOUS
10
78.7705
20
-82.2152
11
75.1725
21
-95.6415
0
LINE
8
BLACK
6
CONTINUOUS
10
65.6145
20
-78.3796
11
78.5585
21
-81.8477
0
LINE
8
BLACK
6
CONTINUOUS
10
84.0165
20
-83.3135
11
96.9605
21
-86.7817
0
LINE
8
BLACK
6
CONTINUOUS
10
97.1725
20
-87.1491
11
93.5745
21
-100.575
0
LINE
8
BLACK
6
CONTINUOUS
10
93.2075
20
-100.788
11
80.2645
21
-97.3194
0
LINE
8
BLACK
6
CONTINUOUS
10
80.0515
20
-96.952
11
83.6495
21
-83.5257
0
ARC
8
BLACK
10
83.9395
20
-83.6033
40
0.3
50
75.0001
51
165
0
ARC
8
BLACK
10
80.3415
20
-97.0297
40
0.3
50
165
51
255
0
ARC
8
BLACK
10
93.2855
20
-100.498
40
0.299999
50
-105
51
-15.0001
0
ARC
8
BLACK
10
96.8825
20
-87.0715
40
0.299999
50
-14.9999
51
75.0001
0
ARC
8
BLACK
10
115.285
20
-92.0054
40
0.299999
50
-14.9999
51
75.0001
0
ARC
8
BLACK
10
111.688
20
-105.432
40
0.299999
50
-105
51
-15.0001
0
ARC
8
BLACK
10
98.7445
20
-101.964
40
0.3
50
165
51
255
0
ARC
8
BLACK
10
102.341
20
-88.5373
40
0.3
50
75.0001
51
165
0
LINE
8
BLACK
6
CONTINUOUS
10
98.4545
20
-101.886
11
102.051
21
-88.4596
0
LINE
8
BLACK
6
CONTINUOUS
10
111.609
20
-105.722
11
98.6665
21
-102.253
0
LINE
8
BLACK
6
CONTINUOUS
10
115.575
20
-92.0831
11
111.977
21
-105.509
0
LINE
8
BLACK
6
CONTINUOUS
10
102.419
20
-88.2475
11
115.362
21
-91.7156
0
LINE
8
BLACK
6
CONTINUOUS
10
101.987
20
-108.251
11
114.93
21
-111.72
0
LINE
8
BLACK
6
CONTINUOUS
10
115.142
20
-112.087
11
111.545
21
-125.513
0
LINE
8
BLACK
6
CONTINUOUS
10
111.177
20
-125.725
11
98.2345
21
-122.257
0
LINE
8
BLACK
6
CONTINUOUS
10
98.0225
20
-121.89
11
101.62
21
-108.463
0
ARC
8
BLACK
10
101.909
20
-108.541
40
0.3
50
75.0001
51
165
0
ARC
8
BLACK
10
98.3125
20
-121.967
40
0.3
50
165
51
255
0
ARC
8
BLACK
10
111.255
20
-125.436
40
0.299999
50
-105
51
-15.0001
0
ARC
8
BLACK
10
114.853
20
-112.009
40
0.299999
50
-14.9999
51
75.0001
0
LINE
8
BLACK
6
CONTINUOUS
10
39.7315
20
-92.1513
11
52.6745
21
-95.6195
0
LINE
8
BLACK
6
CONTINUOUS
10
52.8865
20
-95.9869
11
49.2895
21
-109.413
0
LINE
8
BLACK
6
CONTINUOUS
10
48.9215
20
-109.625
11
35.9785
21
-106.157
0
LINE
8
BLACK
6
CONTINUOUS
10
35.7665
20
-105.79
11
39.3635
21
-92.3634
0
ARC
8
BLACK
10
39.6535
20
-92.4411
40
0.3
50
75.0001
51
165
0
ARC
8
BLACK
10
36.0565
20
-105.867
40
0.3
50
165
51
255
0
ARC
8
BLACK
10
48.9995
20
-109.336
40
0.299999
50
-105
51
-15.0001
0
ARC
8
BLACK
10
52.5975
20
-95.9092
40
0.299999
50
-14.9999
51
75.0001
0
ARC
8
BLACK
10
95.9695
20
-127.263
40
0.299999
50
-14.9999
51
75.0001
0
ARC
8
BLACK
10
92.3715
20
-140.69
40
0.299999
50
-105
51
-15.0001
0
ARC
8
BLACK
10
79.4285
20
-137.221
40
0.3
50
165
51
255
0
ARC
8
BLACK
10
83.0255
20
-123.795
40
0.3
50
75.0001
51
165
0
LINE
8
BLACK
6
CONTINUOUS
10
79.1385
20
-137.144
11
82.7365
21
-123.717
0
LINE
8
BLACK
6
CONTINUOUS
10
92.2945
20
-140.979
11
79.3505
21
-137.511
0
LINE
8
BLACK
6
CONTINUOUS
10
96.2595
20
-127.341
11
92.6615
21
-140.767
0
LINE
8
BLACK
6
CONTINUOUS
10
83.1035
20
-123.505
11
96.0465
21
-126.973
0
LINE
8
BLACK
6
CONTINUOUS
10
27.8319
20
-108.945
11
40.7755
21
-112.413
0
LINE
8
BLACK
6
CONTINUOUS
10
40.9875
20
-112.78
11
37.5195
21
-125.724
0
LINE
8
BLACK
6
CONTINUOUS
10
37.1515
20
-125.936
11
24.2084
21
-122.468
0
LINE
8
BLACK
6
CONTINUOUS
10
23.9963
20
-122.1
11
27.4645
21
-109.157
0
ARC
8
BLACK
10
27.7542
20
-109.235
40
0.299999
50
75.0003
51
165
0
ARC
8
BLACK
10
24.2861
20
-122.178
40
0.299999
50
165
51
255
0
ARC
8
BLACK
10
37.2295
20
-125.646
40
0.299998
50
-105
51
-15
0
ARC
8
BLACK
10
40.6975
20
-112.703
40
0.299998
50
-14.9998
51
75.0002
0
ARC
8
BLACK
10
59.0995
20
-117.637
40
0.299998
50
-14.9998
51
75.0002
0
ARC
8
BLACK
10
55.6315
20
-130.58
40
0.299998
50
-105
51
-15
0
ARC
8
BLACK
10
42.6885
20
-127.112
40
0.299999
50
165
51
255
0
ARC
8
BLACK
10
46.1565
20
-114.169
40
0.299999
50
75.0003
51
165
0
LINE
8
BLACK
6
CONTINUOUS
10
42.3985
20
-127.034
11
45.8665
21
-114.091
0
LINE
8
BLACK
6
CONTINUOUS
10
55.5545
20
-130.87
11
42.6105
21
-127.402
0
LINE
8
BLACK
6
CONTINUOUS
10
59.3895
20
-117.714
11
55.9215
21
-130.658
0
LINE
8
BLACK
6
CONTINUOUS
10
46.2345
20
-113.879
11
59.1775
21
-117.347
0
LINE
8
BLACK
6
CONTINUOUS
10
64.6365
20
-118.813
11
77.5795
21
-122.281
0
LINE
8
BLACK
6
CONTINUOUS
10
77.7925
20
-122.648
11
74.3235
21
-135.592
0
LINE
8
BLACK
6
CONTINUOUS
10
73.9565
20
-135.804
11
61.0135
21
-132.336
0
LINE
8
BLACK
6
CONTINUOUS
10
60.8005
20
-131.968
11
64.2695
21
-119.025
0
ARC
8
BLACK
10
64.5585
20
-119.103
40
0.299999
50
75.0003
51
165
0
ARC
8
BLACK
10
61.0905
20
-132.046
40
0.299999
50
165
51
255
0
ARC
8
BLACK
10
74.0345
20
-135.514
40
0.299998
50
-105
51
-15
0
ARC
8
BLACK
10
77.5025
20
-122.571
40
0.299998
50
-14.9998
51
75.0002
0
LINE
8
BLACK
6
CONTINUOUS
10
207.939
20
-122.681
11
220.881
21
-119.213
0
LINE
8
BLACK
6
CONTINUOUS
10
221.249
20
-119.425
11
224.718
21
-132.368
0
LINE
8
BLACK
6
CONTINUOUS
10
224.505
20
-132.736
11
211.561
21
-136.204
0
LINE
8
BLACK
6
CONTINUOUS
10
211.194
20
-135.992
11
207.726
21
-123.048
0
ARC
8
BLACK
10
208.016
20
-122.971
40
0.3
50
105
51
195
0
ARC
8
BLACK
10
211.484
20
-135.914
40
0.3
50
-165
51
-75.0002
0
ARC
8
BLACK
10
224.427
20
-132.446
40
0.299999
50
-75.0001
51
14.9999
0
ARC
8
BLACK
10
220.959
20
-119.502
40
0.299999
50
15.0001
51
105
0
ARC
8
BLACK
10
239.361
20
-114.569
40
0.299999
50
15.0001
51
105
0
ARC
8
BLACK
10
242.829
20
-127.512
40
0.299999
50
-75.0001
51
14.9999
0
ARC
8
BLACK
10
229.886
20
-130.98
40
0.3
50
-165
51
-75.0002
0
ARC
8
BLACK
10
226.418
20
-118.037
40
0.3
50
105
51
195
0
LINE
8
BLACK
6
CONTINUOUS
10
229.596
20
-131.058
11
226.129
21
-118.114
0
LINE
8
BLACK
6
CONTINUOUS
10
242.907
20
-127.802
11
229.963
21
-131.27
0
LINE
8
BLACK
6
CONTINUOUS
10
239.651
20
-114.491
11
243.119
21
-127.434
0
LINE
8
BLACK
6
CONTINUOUS
10
226.34
20
-117.747
11
239.283
21
-114.279
0
LINE
8
BLACK
6
CONTINUOUS
10
244.742
20
-112.813
11
257.686
21
-109.345
0
LINE
8
BLACK
6
CONTINUOUS
10
258.053
20
-109.557
11
261.522
21
-122.5
0
LINE
8
BLACK
6
CONTINUOUS
10
261.31
20
-122.868
11
248.367
21
-126.336
0
LINE
8
BLACK
6
CONTINUOUS
10
247.998
20
-126.124
11
244.53
21
-113.18
0
ARC
8
BLACK
10
244.82
20
-113.103
40
0.3
50
105
51
195
0
ARC
8
BLACK
10
248.288
20
-126.046
40
0.3
50
-165
51
-75.0002
0
ARC
8
BLACK
10
261.233
20
-122.578
40
0.299999
50
-75.0001
51
14.9999
0
ARC
8
BLACK
10
257.763
20
-109.635
40
0.299999
50
15.0001
51
105
0
LINE
8
BLACK
6
CONTINUOUS
10
-16.1112
20
-67.8605
11
15.0887
21
-67.8605
0
LINE
8
BLACK
6
CONTINUOUS
10
-16.4113
20
-68.1605
11
-16.4113
21
-87.8605
0
LINE
8
BLACK
6
CONTINUOUS
10
-7.5113
20
-86.4605
11
-7.5113
21
-87.8605
0
LINE
8
BLACK
6
CONTINUOUS
10
-7.8113
20
-88.1605
11
-16.1112
21
-88.1605
0
LINE
8
BLACK
6
CONTINUOUS
10
15.3888
20
-68.1605
11
15.3888
21
-87.8605
0
LINE
8
BLACK
6
CONTINUOUS
10
6.4887
20
-86.4605
11
6.4887
21
-87.8605
0
LINE
8
BLACK
6
CONTINUOUS
10
6.7887
20
-88.1605
11
15.0887
21
-88.1605
0
ARC
8
BLACK
10
-16.1112
20
-68.1605
40
0.3
50
90
51
180
0
ARC
8
BLACK
10
15.0887
20
-68.1605
40
0.3
50
-0
51
90
0
ARC
8
BLACK
10
15.0887
20
-87.8605
40
0.3
50
-90
51
-0
0
ARC
8
BLACK
10
6.7887
20
-87.8605
40
0.3
50
180
51
270
0
ARC
8
BLACK
10
-16.1112
20
-87.8605
40
0.3
50
180
51
270
0
ARC
8
BLACK
10
-7.8113
20
-87.8605
40
0.3
50
-90
51
-0
0
LINE
8
BLACK
6
CONTINUOUS
10
-7.2113
20
-86.1605
11
6.1887
21
-86.1605
0
ARC
8
BLACK
10
-7.2113
20
-86.4605
40
0.3
50
90
51
180
0
ARC
8
BLACK
10
6.1887
20
-86.4605
40
0.3
50
-0
51
90
0
LINE
8
BLACK
6
CONTINUOUS
10
64.4575
20
-94.3079
11
94.5945
21
-102.383
0
LINE
8
BLACK
6
CONTINUOUS
10
64.0895
20
-94.5201
11
58.9915
21
-113.549
0
LINE
8
BLACK
6
CONTINUOUS
10
67.9505
20
-114.5
11
67.5875
21
-115.852
0
LINE
8
BLACK
6
CONTINUOUS
10
67.2205
20
-116.064
11
59.2035
21
-113.916
0
LINE
8
BLACK
6
CONTINUOUS
10
94.8065
20
-102.751
11
89.7075
21
-121.779
0
LINE
8
BLACK
6
CONTINUOUS
10
81.4735
20
-118.123
11
81.1105
21
-119.476
0
LINE
8
BLACK
6
CONTINUOUS
10
81.3235
20
-119.843
11
89.3405
21
-121.991
0
ARC
8
BLACK
10
64.3795
20
-94.5977
40
0.3
50
75
51
165
0
ARC
8
BLACK
10
94.5165
20
-102.673
40
0.299998
50
-14.9998
51
75.0002
0
ARC
8
BLACK
10
89.4175
20
-121.702
40
0.299998
50
-105
51
-15
0
ARC
8
BLACK
10
219.141
20
-115.928
40
0.3
50
-165
51
-75.0001
0
ARC
8
BLACK
10
227.157
20
-113.78
40
0.299999
50
-75.0001
51
14.9999
0
ARC
8
BLACK
10
222.058
20
-94.751
40
0.299999
50
15.0001
51
105
0
ARC
8
BLACK
10
191.921
20
-102.826
40
0.3
50
105
51
195
0
LINE
8
BLACK
6
CONTINUOUS
10
219.218
20
-116.218
11
227.234
21
-114.069
0
LINE
8
BLACK
6
CONTINUOUS
10
218.487
20
-114.653
11
218.85
21
-116.006
0
LINE
8
BLACK
6
CONTINUOUS
10
222.349
20
-94.6733
11
227.447
21
-113.702
0
LINE
8
BLACK
6
CONTINUOUS
10
205.115
20
-119.996
11
197.099
21
-122.145
0
LINE
8
BLACK
6
CONTINUOUS
10
204.965
20
-118.277
11
205.327
21
-119.629
0
LINE
8
BLACK
6
CONTINUOUS
10
191.631
20
-102.904
11
196.73
21
-121.932
0
ARC
8
BLACK
10
81.4005
20
-119.553
40
0.3
50
165
51
255
0
ARC
8
BLACK
10
59.2805
20
-113.626
40
0.3
50
165
51
255
0
ARC
8
BLACK
10
67.2985
20
-115.775
40
0.299999
50
-105
51
-15.0001
0
LINE
8
BLACK
6
CONTINUOUS
10
68.3175
20
-114.288
11
81.2615
21
-117.756
0
ARC
8
BLACK
10
68.2405
20
-114.578
40
0.3
50
75.0001
51
165
0
ARC
8
BLACK
10
81.1835
20
-118.046
40
0.299999
50
-14.9999
51
75.0001
0
ARC
8
BLACK
10
302.029
20
-86.465
40
0.3
50
90
51
180
0
ARC
8
BLACK
10
315.428
20
-86.465
40
0.3
50
-0
51
90
0
ARC
8
BLACK
10
218.198
20
-114.731
40
0.299999
50
15.0001
51
105
0
ARC
8
BLACK
10
205.254
20
-118.199
40
0.3
50
105
51
195
0
LINE
8
BLACK
6
CONTINUOUS
10
-30.5475
20
-33.5105
11
-17.1475
21
-33.5105
0
LINE
8
BLACK
6
CONTINUOUS
10
-16.8475
20
-33.8105
11
-16.8475
21
-47.7105
0
LINE
8
BLACK
6
CONTINUOUS
10
-17.1475
20
-48.0105
11
-30.5475
21
-48.0105
0
LINE
8
BLACK
6
CONTINUOUS
10
-30.8475
20
-47.7105
11
-30.8475
21
-33.8105
0
ARC
8
BLACK
10
-30.5475
20
-33.8105
40
0.3
50
90
51
180
0
ARC
8
BLACK
10
-30.5475
20
-47.7105
40
0.3
50
180
51
270
0
ARC
8
BLACK
10
-17.1475
20
-47.7105
40
0.299999
50
-90
51
-0
0
ARC
8
BLACK
10
-17.1475
20
-33.8105
40
0.299999
50
-0
51
90
0
ARC
8
BLACK
10
8.57
20
-33.8105
40
0.3
50
-0
51
90
0
ARC
8
BLACK
10
8.57
20
-47.7105
40
0.299999
50
-90
51
-0
0
ARC
8
BLACK
10
-4.83
20
-47.7105
40
0.3
50
180
51
270
0
ARC
8
BLACK
10
-4.83
20
-33.8105
40
0.3
50
90
51
180
0
LINE
8
BLACK
6
CONTINUOUS
10
-5.13
20
-47.7105
11
-5.13
21
-33.8105
0
LINE
8
BLACK
6
CONTINUOUS
10
8.57
20
-48.0105
11
-4.83
21
-48.0105
0
LINE
8
BLACK
6
CONTINUOUS
10
8.87
20
-33.8105
11
8.87
21
-47.7105
0
LINE
8
BLACK
6
CONTINUOUS
10
-4.83
20
-33.5105
11
8.57
21
-33.5105
0
LINE
8
BLACK
6
CONTINUOUS
10
18.9825
20
-33.5105
11
32.3825
21
-33.5105
0
LINE
8
BLACK
6
CONTINUOUS
10
32.6825
20
-33.8105
11
32.6825
21
-47.7105
0
LINE
8
BLACK
6
CONTINUOUS
10
32.3825
20
-48.0105
11
18.9825
21
-48.0105
0
LINE
8
BLACK
6
CONTINUOUS
10
18.6825
20
-47.7105
11
18.6825
21
-33.8105
0
ARC
8
BLACK
10
18.9825
20
-33.8105
40
0.3
50
90
51
180
0
ARC
8
BLACK
10
18.9825
20
-47.7105
40
0.3
50
180
51
270
0
ARC
8
BLACK
10
32.3825
20
-47.7105
40
0.299999
50
-90
51
-0
0
ARC
8
BLACK
10
32.3825
20
-33.8105
40
0.3
50
-0
51
90
0
LINE
8
BLACK
6
CONTINUOUS
10
-35.31
20
-52.5605
11
-21.91
21
-52.5605
0
LINE
8
BLACK
6
CONTINUOUS
10
-21.61
20
-52.8605
11
-21.61
21
-66.7605
0
LINE
8
BLACK
6
CONTINUOUS
10
-21.91
20
-67.0605
11
-35.31
21
-67.0605
0
LINE
8
BLACK
6
CONTINUOUS
10
-35.61
20
-66.7605
11
-35.61
21
-52.8605
0
ARC
8
BLACK
10
-35.31
20
-52.8605
40
0.3
50
90
51
180
0
ARC
8
BLACK
10
-35.31
20
-66.7605
40
0.3
50
180
51
270
0
ARC
8
BLACK
10
-21.91
20
-66.7605
40
0.3
50
-90
51
-0
0
ARC
8
BLACK
10
-21.91
20
-52.8605
40
0.3
50
-0
51
90
0
ARC
8
BLACK
10
6.1887
20
-52.8605
40
0.3
50
-0
51
90
0
ARC
8
BLACK
10
6.1887
20
-66.7605
40
0.3
50
-90
51
-0
0
ARC
8
BLACK
10
-7.2113
20
-66.7605
40
0.3
50
180
51
270
0
ARC
8
BLACK
10
-7.2113
20
-52.8605
40
0.3
50
90
51
180
0
LINE
8
BLACK
6
CONTINUOUS
10
-7.5113
20
-66.7605
11
-7.5113
21
-52.8605
0
LINE
8
BLACK
6
CONTINUOUS
10
6.1887
20
-67.0605
11
-7.2113
21
-67.0605
0
LINE
8
BLACK
6
CONTINUOUS
10
6.4887
20
-52.8605
11
6.4887
21
-66.7605
0
LINE
8
BLACK
6
CONTINUOUS
10
-7.2113
20
-52.5605
11
6.1887
21
-52.5605
0
LINE
8
BLACK
6
CONTINUOUS
10
18.9825
20
-52.5605
11
32.3825
21
-52.5605
0
LINE
8
BLACK
6
CONTINUOUS
10
32.6825
20
-52.8605
11
32.6825
21
-66.7605
0
LINE
8
BLACK
6
CONTINUOUS
10
32.3825
20
-67.0605
11
18.9825
21
-67.0605
0
LINE
8
BLACK
6
CONTINUOUS
10
18.6825
20
-66.7605
11
18.6825
21
-52.8605
0
ARC
8
BLACK
10
18.9825
20
-52.8605
40
0.3
50
90
51
180
0
ARC
8
BLACK
10
18.9825
20
-66.7605
40
0.3
50
180
51
270
0
ARC
8
BLACK
10
32.3825
20
-66.7605
40
0.3
50
-90
51
-0
0
ARC
8
BLACK
10
32.3825
20
-52.8605
40
0.3
50
-0
51
90
0
ARC
8
BLACK
10
-27.625
20
-71.9105
40
0.299999
50
-0
51
90
0
ARC
8
BLACK
10
-27.625
20
-85.8105
40
0.3
50
-90
51
-0
0
ARC
8
BLACK
10
-41.025
20
-85.8105
40
0.3
50
180
51
270
0
ARC
8
BLACK
10
-41.025
20
-71.9105
40
0.3
50
90
51
180
0
LINE
8
BLACK
6
CONTINUOUS
10
-41.325
20
-85.8105
11
-41.325
21
-71.9105
0
LINE
8
BLACK
6
CONTINUOUS
10
-27.625
20
-86.1105
11
-41.025
21
-86.1105
0
LINE
8
BLACK
6
CONTINUOUS
10
-27.325
20
-71.9105
11
-27.325
21
-85.8105
0
LINE
8
BLACK
6
CONTINUOUS
10
-41.025
20
-71.6105
11
-27.625
21
-71.6105
0
ARC
8
BLACK
10
37.1445
20
-71.9105
40
0.3
50
-0
51
90
0
ARC
8
BLACK
10
37.1445
20
-85.8105
40
0.3
50
-90
51
-0
0
ARC
8
BLACK
10
23.745
20
-85.8105
40
0.3
50
180
51
270
0
ARC
8
BLACK
10
23.745
20
-71.9105
40
0.3
50
90
51
180
0
LINE
8
BLACK
6
CONTINUOUS
10
23.445
20
-85.8105
11
23.445
21
-71.9105
0
LINE
8
BLACK
6
CONTINUOUS
10
37.1445
20
-86.1105
11
23.745
21
-86.1105
0
LINE
8
BLACK
6
CONTINUOUS
10
37.4445
20
-71.9105
11
37.4445
21
-85.8105
0
LINE
8
BLACK
6
CONTINUOUS
10
23.745
20
-71.6105
11
37.1445
21
-71.6105
0
LINE
8
BLACK
6
CONTINUOUS
10
5.1712
20
-90.6605
11
18.5712
21
-90.6605
0
LINE
8
BLACK
6
CONTINUOUS
10
18.8713
20
-90.9605
11
18.8713
21
-104.861
0
LINE
8
BLACK
6
CONTINUOUS
10
18.5712
20
-105.16
11
5.1712
21
-105.16
0
LINE
8
BLACK
6
CONTINUOUS
10
4.8713
20
-104.861
11
4.8713
21
-90.9605
0
ARC
8
BLACK
10
5.1712
20
-90.9605
40
0.3
50
90
51
180
0
ARC
8
BLACK
10
5.1712
20
-104.861
40
0.3
50
180
51
270
0
ARC
8
BLACK
10
18.5712
20
-104.861
40
0.3
50
-90
51
-0
0
ARC
8
BLACK
10
18.5712
20
-90.9605
40
0.3
50
-0
51
90
0
ARC
8
BLACK
10
-2.86
20
-90.9605
40
0.3
50
-0
51
90
0
ARC
8
BLACK
10
-2.86
20
-104.861
40
0.3
50
-90
51
-0
0
ARC
8
BLACK
10
-16.26
20
-104.861
40
0.3
50
180
51
270
0
ARC
8
BLACK
10
-16.26
20
-90.9605
40
0.3
50
90
51
180
0
LINE
8
BLACK
6
CONTINUOUS
10
-16.56
20
-104.861
11
-16.56
21
-90.9605
0
LINE
8
BLACK
6
CONTINUOUS
10
-2.86
20
-105.16
11
-16.26
21
-105.16
0
LINE
8
BLACK
6
CONTINUOUS
10
-2.56
20
-90.9605
11
-2.56
21
-104.861
0
LINE
8
BLACK
6
CONTINUOUS
10
-16.26
20
-90.6605
11
-2.86
21
-90.6605
0
LINE
8
BLACK
6
CONTINUOUS
10
-35.31
20
-90.6605
11
-21.91
21
-90.6605
0
LINE
8
BLACK
6
CONTINUOUS
10
-21.61
20
-90.9605
11
-21.61
21
-104.861
0
LINE
8
BLACK
6
CONTINUOUS
10
-21.91
20
-105.16
11
-35.31
21
-105.16
0
LINE
8
BLACK
6
CONTINUOUS
10
-35.61
20
-104.861
11
-35.61
21
-90.9605
0
ARC
8
BLACK
10
-35.31
20
-90.9605
40
0.3
50
90
51
180
0
ARC
8
BLACK
10
-35.31
20
-104.861
40
0.3
50
180
51
270
0
ARC
8
BLACK
10
-21.91
20
-104.861
40
0.3
50
-90
51
-0
0
ARC
8
BLACK
10
-21.91
20
-90.9605
40
0.3
50
-0
51
90
0
ARC
8
BLACK
10
-21.91
20
-110.01
40
0.3
50
-0
51
90
0
LINE
8
BLACK
6
CONTINUOUS
10
127.2
20
-29.5
11
126
21
-29.5
0
ARC
8
BLACK
10
119.71
20
-44.5
40
0.5
50
90
51
270
0
LINE
8
BLACK
6
CONTINUOUS
10
326.16
20
-27.76
11
214.16
21
-27.76
0
LINE
8
BLACK
6
CONTINUOUS
10
161.16
20
-47.76
11
161.16
21
-120.76
0
LINE
8
BLACK
6
CONTINUOUS
10
165.16
20
-128.76
11
186.161
21
-145.76
0
LINE
8
BLACK
6
CONTINUOUS
10
195.16
20
-148.76
11
334.16
21
-127.76
0
LINE
8
BLACK
6
CONTINUOUS
10
337.16
20
-124.76
11
329.16
21
-30.76
0
ARC
8
BLACK
10
326.16
20
-30.76
40
3
50
-0
51
90
0
ARC
8
BLACK
10
334.16
20
-124.76
40
3
50
-90
51
-0
0
ARC
8
BLACK
10
193.161
20
-139.76
40
9.21954
50
-139.399
51
-77.4712
0
ARC
8
BLACK
10
171.16
20
-120.76
40
10
50
180
51
233.13
0
LINE
8
BLACK
6
CONTINUOUS
10
157.16
20
-27.76
11
200.16
21
-27.76
0
ARC
8
BLACK
10
157.16
20
-28.76
40
1
50
90
51
180
0
ARC
8
BLACK
10
157.16
20
-45.76
40
1
50
180
51
270
0
ARC
8
BLACK
10
160.16
20
-47.76
40
1
50
-0
51
90
0
LINE
8
BLACK
6
CONTINUOUS
10
160.16
20
-46.76
11
157.16
21
-46.76
0
LINE
8
BLACK
6
CONTINUOUS
10
156.16
20
-45.76
11
156.16
21
-28.76
0
LINE
8
BLACK
6
CONTINUOUS
10
212.16
20
-22.76
11
202.16
21
-22.76
0
ARC
8
BLACK
10
202.16
20
-23.76
40
1
50
90
51
180
0
ARC
8
BLACK
10
212.16
20
-23.76
40
1
50
-0
51
90
0
ARC
8
BLACK
10
200.16
20
-26.76
40
1
50
-90
51
-0
0
ARC
8
BLACK
10
214.16
20
-26.76
40
1
50
180
51
270
0
LINE
8
BLACK
6
CONTINUOUS
10
213.16
20
-23.76
11
213.16
21
-26.76
0
LINE
8
BLACK
6
CONTINUOUS
10
201.16
20
-23.76
11
201.16
21
-26.76
0
LINE
8
BLACK
6
CONTINUOUS
10
122.156
20
-27.7555
11
129.156
21
-27.7555
0
LINE
8
BLACK
6
CONTINUOUS
10
130.156
20
-28.7555
11
130.156
21
-45.7555
0
LINE
8
BLACK
6
CONTINUOUS
10
126.156
20
-46.7555
11
129.156
21
-46.7555
0
ARC
8
BLACK
10
129.156
20
-28.7555
40
1
50
-0
51
90
0
ARC
8
BLACK
10
129.156
20
-45.7555
40
1
50
-90
51
-0
0
LINE
8
BLACK
6
CONTINUOUS
10
-39.844
20
-27.7555
11
122.156
21
-27.7555
0
LINE
8
BLACK
6
CONTINUOUS
10
125.156
20
-47.7555
11
125.156
21
-120.755
0
LINE
8
BLACK
6
CONTINUOUS
10
121.156
20
-128.755
11
100.156
21
-145.755
0
LINE
8
BLACK
6
CONTINUOUS
10
91.156
20
-148.755
11
-47.844
21
-127.755
0
LINE
8
BLACK
6
CONTINUOUS
10
-50.844
20
-124.755
11
-42.844
21
-30.7555
0
ARC
8
BLACK
10
-39.844
20
-30.7555
40
3
50
90
51
180
0
ARC
8
BLACK
10
-47.844
20
-124.755
40
3
50
180
51
270
0
ARC
8
BLACK
10
93.156
20
-139.755
40
9.21954
50
-102.529
51
-40.6013
0
ARC
8
BLACK
10
115.156
20
-120.755
40
10
50
-53.1301
51
4.51718e-06
0
ARC
8
BLACK
10
126.156
20
-47.7555
40
1
50
90
51
180
0
LINE
8
BLACK
6
CONTINUOUS
10
326.06
20
-111.66
11
332.26
21
-111.66
0
LINE
8
BLACK
6
CONTINUOUS
10
332.26
20
-111.66
11
332.26
21
-117.86
0
LINE
8
BLACK
6
CONTINUOUS
10
332.26
20
-117.86
11
326.06
21
-117.86
0
LINE
8
BLACK
6
CONTINUOUS
10
326.06
20
-117.86
11
326.06
21
-111.66
0
LINE
8
BLACK
6
CONTINUOUS
10
326.06
20
-92.66
11
332.26
21
-92.66
0
LINE
8
BLACK
6
CONTINUOUS
10
332.26
20
-92.66
11
332.26
21
-98.86
0
LINE
8
BLACK
6
CONTINUOUS
10
332.26
20
-98.86
11
326.06
21
-98.86
0
LINE
8
BLACK
6
CONTINUOUS
10
326.06
20
-98.86
11
326.06
21
-92.66
0
CIRCLE
8
BLACK
10
121.156
20
-50.7555
40
1.1
0
CIRCLE
8
BLACK
10
105.156
20
-135.755
40
1.1
0
CIRCLE
8
BLACK
10
-46.844
20
-123.755
40
1.1
0
CIRCLE
8
BLACK
10
-38.844
20
-31.7555
40
1.1
0
CIRCLE
8
BLACK
10
42.156
20
-70.7555
40
1.1
0
CIRCLE
8
BLACK
10
165.16
20
-50.76
40
1.1
0
CIRCLE
8
BLACK
10
181.16
20
-135.76
40
1.1
0
CIRCLE
8
BLACK
10
333.16
20
-123.76
40
1.1
0
CIRCLE
8
BLACK
10
325.16
20
-31.76
40
1.1
0
CIRCLE
8
BLACK
10
244.16
20
-70.76
40
1.1
0
LINE
8
BLACK
6
CONTINUOUS
10
303.16
20
-33.81
11
303.16
21
-47.71
0
LINE
8
BLACK
6
CONTINUOUS
10
303.461
20
-48.01
11
316.86
21
-48.01
0
LINE
8
BLACK
6
CONTINUOUS
10
317.16
20
-47.71
11
317.16
21
-33.81
0
LINE
8
BLACK
6
CONTINUOUS
10
316.86
20
-33.51
11
303.461
21
-33.51
0
ARC
8
BLACK
10
303.461
20
-33.81
40
0.3
50
90
51
180
0
ARC
8
BLACK
10
316.86
20
-33.81
40
0.3
50
-0
51
90
0
ARC
8
BLACK
10
316.86
20
-47.71
40
0.299999
50
-90
51
-0
0
ARC
8
BLACK
10
303.461
20
-47.71
40
0.3
50
180
51
270
0
ARC
8
BLACK
10
166.61
20
-44.42
40
0.5
50
-90
51
90
0
ARC
8
BLACK
10
164.83
20
-44.42
40
0.5
50
90
51
270
0
LINE
8
BLACK
6
CONTINUOUS
10
164.82
20
-43.92
11
166.61
21
-43.92
0
ARC
8
BLACK
10
126
20
-44.5
40
0.5
50
90
51
270
0
ARC
8
BLACK
10
119.71
20
-30
40
0.5
50
90
51
270
0
LINE
8
BLACK
6
CONTINUOUS
10
121.5
20
-45
11
119.71
21
-45
0
ARC
8
BLACK
10
127.2
20
-30
40
0.5
50
-90
51
90
0
ARC
8
BLACK
10
121.49
20
-30
40
0.5
50
-90
51
90
0
LINE
8
BLACK
6
CONTINUOUS
10
159.121
20
-30.42
11
160.32
21
-30.42
0
ARC
8
BLACK
10
160.32
20
-29.92
40
0.5
50
-90
51
90
0
LINE
8
BLACK
6
CONTINUOUS
10
159.121
20
-44.92
11
160.32
21
-44.92
0
ARC
8
BLACK
10
159.121
20
-44.42
40
0.5
50
90
51
270
0
LINE
8
BLACK
6
CONTINUOUS
10
159.11
20
-43.92
11
160.32
21
-43.92
0
ARC
8
BLACK
10
160.32
20
-44.42
40
0.5
50
-90
51
90
0
ARC
8
BLACK
10
121.49
20
-44.5
40
0.5
50
-90
51
90
0
LINE
8
BLACK
6
CONTINUOUS
10
164.83
20
-44.92
11
166.61
21
-44.92
0
LINE
8
BLACK
6
CONTINUOUS
10
164.82
20
-29.42
11
166.61
21
-29.42
0
LINE
8
BLACK
6
CONTINUOUS
10
164.83
20
-30.42
11
166.61
21
-30.42
0
ARC
8
BLACK
10
164.83
20
-29.92
40
0.5
50
90
51
270
0
ARC
8
BLACK
10
166.61
20
-29.92
40
0.5
50
-90
51
90
0
ARC
8
BLACK
10
159.121
20
-29.92
40
0.5
50
90
51
270
0
LINE
8
BLACK
6
CONTINUOUS
10
159.11
20
-29.42
11
160.32
21
-29.42
0
LINE
8
BLACK
6
CONTINUOUS
10
127.2
20
-44
11
126
21
-44
0
ARC
8
BLACK
10
127.2
20
-44.5
40
0.5
50
-90
51
90
0
LINE
8
BLACK
6
CONTINUOUS
10
127.21
20
-45
11
126
21
-45
0
LINE
8
BLACK
6
CONTINUOUS
10
121.5
20
-30.5
11
119.71
21
-30.5
0
LINE
8
BLACK
6
CONTINUOUS
10
127.21
20
-30.5
11
126
21
-30.5
0
LINE
8
BLACK
6
CONTINUOUS
10
121.49
20
-29.5
11
119.71
21
-29.5
0
LINE
8
BLACK
6
CONTINUOUS
10
121.49
20
-44
11
119.71
21
-44
0
ARC
8
BLACK
10
126
20
-30
40
0.5
50
90
51
270
  0
ENDSEC
  0
EOF
