  0
SECTION
  2
HEADER
  9
$ANGBASE
  50
0.0
  9
$ANGDIR
  70
1
  9
$MEASUREMENT
  70
1
  0
ENDSEC
  0
SECTION
  2
TABLES
  0
TABLE
  2
LTYPE
  70
4
  0
LTYPE
  5
40F
  2
CONTINUOUS
  70
0
  3
Solid line
  72
65
  73
0
  40
0.0
  0
LTYPE
  5
410
  2
DASHDOT
 70
0
  3
Dash Dot ____ _ ____ _
 72
65
 73
4
 40
2.0
 49
1.25
 49
-0.25
 49
0.25
 49
-0.25
  0
LTYPE
  5
411
  2
DASHED
 70
0
  3
Dashed __ __ __ __ __
 72
65
 73
2
 40
0.75
 49
0.5
 49
-0.25
  0
LTYPE
  5
43B
  2
DOTTED
 70
0
  3
Dotted .  .  .  .
 72
65
 73
2
 40
0.2
 49
0.0
 49
-0.2
  0
ENDTAB
  0
TABLE
  2
STYLE
  70
4
  0
STYLE
  2
KICAD
  70
0
  40
0
  41
1
  42
1
  50
0
  71
0
  3
isocp.shx
  0
STYLE
  2
KICADB
  70
0
  40
0
  41
1
  42
1
  50
0
  71
0
  3
isocp.shx
  0
STYLE
  2
KICADI
  70
0
  40
0
  41
1
  42
1
  50
15
  71
0
  3
isocp.shx
  0
STYLE
  2
KICADBI
  70
0
  40
0
  41
1
  42
1
  50
15
  71
0
  3
isocp.shx
  0
ENDTAB
  0
TABLE
  2
LAYER
  70
1
  0
LAYER
  2
BLACK
  70
0
  62
7
  6
CONTINUOUS
  0
ENDTAB
  0
ENDSEC
  0
SECTION
  2
ENTITIES
0
LINE
8
BLACK
6
CONTINUOUS
10
256.88
20
-93.2213
11
287.016
21
-85.1462
0
LINE
8
BLACK
6
CONTINUOUS
10
256.667
20
-93.5888
11
261.766
21
-112.617
0
LINE
8
BLACK
6
CONTINUOUS
10
270.001
20
-108.962
11
270.363
21
-110.314
0
LINE
8
BLACK
6
CONTINUOUS
10
270.151
20
-110.681
11
262.134
21
-112.83
0
LINE
8
BLACK
6
CONTINUOUS
10
287.384
20
-85.3583
11
292.483
21
-104.387
0
LINE
8
BLACK
6
CONTINUOUS
10
283.523
20
-105.338
11
283.886
21
-106.691
0
LINE
8
BLACK
6
CONTINUOUS
10
284.253
20
-106.903
11
292.27
21
-104.754
0
ARC
8
BLACK
10
256.957
20
-93.5111
40
0.3
50
105
51
195
0
ARC
8
BLACK
10
287.094
20
-85.436
40
0.3
50
15
51
105
0
ARC
8
BLACK
10
292.193
20
-104.465
40
0.3
50
-75
51
15
0
ARC
8
BLACK
10
284.176
20
-106.613
40
0.3
50
-165
51
-75
0
ARC
8
BLACK
10
262.056
20
-112.54
40
0.3
50
-165
51
-75.0001
0
ARC
8
BLACK
10
270.073
20
-110.392
40
0.3
50
-75
51
15
0
LINE
8
BLACK
6
CONTINUOUS
10
270.213
20
-108.594
11
283.156
21
-105.126
0
ARC
8
BLACK
10
270.29
20
-108.884
40
0.3
50
105
51
195
0
ARC
8
BLACK
10
283.234
20
-105.416
40
0.3
50
15
51
105
0
ARC
8
BLACK
10
380.464
20
-77.15
40
0.3
50
-0
51
90
0
ARC
8
BLACK
10
367.064
20
-77.15
40
0.3
50
90
51
180
0
LINE
8
BLACK
6
CONTINUOUS
10
367.064
20
-76.85
11
380.464
21
-76.85
0
ARC
8
BLACK
10
366.464
20
-78.55
40
0.3
50
-90
51
-0
0
ARC
8
BLACK
10
358.164
20
-78.55
40
0.3
50
180
51
270
0
ARC
8
BLACK
10
381.064
20
-78.55
40
0.3
50
180
51
270
0
ARC
8
BLACK
10
389.364
20
-78.55
40
0.3
50
-90
51
-0
0
ARC
8
BLACK
10
389.364
20
-58.85
40
0.3
50
-0
51
90
0
ARC
8
BLACK
10
358.164
20
-58.85
40
0.3
50
90
51
180
0
LINE
8
BLACK
6
CONTINUOUS
10
381.064
20
-78.85
11
389.364
21
-78.85
0
LINE
8
BLACK
6
CONTINUOUS
10
380.764
20
-77.15
11
380.764
21
-78.55
0
LINE
8
BLACK
6
CONTINUOUS
10
389.664
20
-58.85
11
389.664
21
-78.55
0
LINE
8
BLACK
6
CONTINUOUS
10
366.464
20
-78.85
11
358.164
21
-78.85
0
LINE
8
BLACK
6
CONTINUOUS
10
366.764
20
-77.15
11
366.764
21
-78.55
0
LINE
8
BLACK
6
CONTINUOUS
10
357.864
20
-58.85
11
357.864
21
-78.55
0
LINE
8
BLACK
6
CONTINUOUS
10
358.164
20
-58.55
11
389.364
21
-58.55
0
ARC
8
BLACK
10
146.219
20
-108.731
40
0.3
50
-15
51
75
0
ARC
8
BLACK
10
133.276
20
-105.263
40
0.3
50
75
51
165
0
LINE
8
BLACK
6
CONTINUOUS
10
133.353
20
-104.973
11
146.297
21
-108.441
0
ARC
8
BLACK
10
132.334
20
-106.46
40
0.3
50
-105
51
-15
0
ARC
8
BLACK
10
124.316
20
-104.311
40
0.3
50
165
51
255
0
ARC
8
BLACK
10
146.436
20
-110.238
40
0.3
50
165
51
255
0
ARC
8
BLACK
10
154.453
20
-112.387
40
0.299999
50
-105
51
-14.9999
0
ARC
8
BLACK
10
159.552
20
-93.3579
40
0.299999
50
-14.9999
51
75.0001
0
ARC
8
BLACK
10
129.415
20
-85.2827
40
0.3
50
75
51
165
0
LINE
8
BLACK
6
CONTINUOUS
10
146.359
20
-110.528
11
154.376
21
-112.676
0
LINE
8
BLACK
6
CONTINUOUS
10
146.509
20
-108.808
11
146.146
21
-110.161
0
LINE
8
BLACK
6
CONTINUOUS
10
159.842
20
-93.4355
11
154.743
21
-112.464
0
LINE
8
BLACK
6
CONTINUOUS
10
132.256
20
-106.749
11
124.239
21
-104.601
0
LINE
8
BLACK
6
CONTINUOUS
10
132.986
20
-105.185
11
132.623
21
-106.537
0
LINE
8
BLACK
6
CONTINUOUS
10
129.125
20
-85.2051
11
124.027
21
-104.234
0
LINE
8
BLACK
6
CONTINUOUS
10
129.493
20
-84.9929
11
159.63
21
-93.0681
0
ARC
8
BLACK
10
71.2242
20
-77.1455
40
0.3
50
-0
51
90
0
ARC
8
BLACK
10
57.8242
20
-77.1455
40
0.3
50
90
51
180
0
LINE
8
BLACK
6
CONTINUOUS
10
57.8242
20
-76.8455
11
71.2242
21
-76.8455
0
ARC
8
BLACK
10
57.2242
20
-78.5455
40
0.3
50
-90
51
-0
0
ARC
8
BLACK
10
48.9243
20
-78.5455
40
0.3
50
180
51
270
0
ARC
8
BLACK
10
71.8242
20
-78.5455
40
0.3
50
180
51
270
0
ARC
8
BLACK
10
80.1242
20
-78.5455
40
0.3
50
-90
51
-0
0
ARC
8
BLACK
10
80.1242
20
-58.8455
40
0.3
50
-0
51
90
0
ARC
8
BLACK
10
48.9243
20
-58.8455
40
0.3
50
90
51
180
0
LINE
8
BLACK
6
CONTINUOUS
10
71.8242
20
-78.8455
11
80.1242
21
-78.8455
0
LINE
8
BLACK
6
CONTINUOUS
10
71.5242
20
-77.1455
11
71.5242
21
-78.5455
0
LINE
8
BLACK
6
CONTINUOUS
10
80.4243
20
-58.8455
11
80.4243
21
-78.5455
0
LINE
8
BLACK
6
CONTINUOUS
10
57.2242
20
-78.8455
11
48.9243
21
-78.8455
0
LINE
8
BLACK
6
CONTINUOUS
10
57.5242
20
-77.1455
11
57.5242
21
-78.5455
0
LINE
8
BLACK
6
CONTINUOUS
10
48.6242
20
-58.8455
11
48.6242
21
-78.5455
0
LINE
8
BLACK
6
CONTINUOUS
10
48.9243
20
-58.5455
11
80.1242
21
-58.5455
0
ARC
8
BLACK
10
322.799
20
-100.32
40
0.3
50
14.9999
51
105
0
ARC
8
BLACK
10
326.268
20
-113.263
40
0.3
50
-75.0001
51
14.9999
0
ARC
8
BLACK
10
313.324
20
-116.731
40
0.3
50
-165
51
-75.0001
0
ARC
8
BLACK
10
309.856
20
-103.788
40
0.3
50
105
51
195
0
LINE
8
BLACK
6
CONTINUOUS
10
313.034
20
-116.809
11
309.566
21
-103.865
0
LINE
8
BLACK
6
CONTINUOUS
10
326.345
20
-113.553
11
313.402
21
-117.021
0
LINE
8
BLACK
6
CONTINUOUS
10
323.089
20
-100.242
11
326.557
21
-113.185
0
LINE
8
BLACK
6
CONTINUOUS
10
309.778
20
-103.498
11
322.722
21
-100.03
0
LINE
8
BLACK
6
CONTINUOUS
10
291.376
20
-108.432
11
304.319
21
-104.964
0
LINE
8
BLACK
6
CONTINUOUS
10
304.687
20
-105.176
11
308.155
21
-118.119
0
LINE
8
BLACK
6
CONTINUOUS
10
307.943
20
-118.487
11
294.999
21
-121.955
0
LINE
8
BLACK
6
CONTINUOUS
10
294.632
20
-121.743
11
291.164
21
-108.799
0
ARC
8
BLACK
10
291.454
20
-108.722
40
0.3
50
105
51
195
0
ARC
8
BLACK
10
294.922
20
-121.665
40
0.3
50
-165
51
-75.0001
0
ARC
8
BLACK
10
307.865
20
-118.197
40
0.3
50
-75.0001
51
14.9999
0
ARC
8
BLACK
10
304.397
20
-105.254
40
0.3
50
14.9999
51
105
0
ARC
8
BLACK
10
285.995
20
-110.187
40
0.3
50
14.9999
51
105
0
ARC
8
BLACK
10
289.463
20
-123.131
40
0.3
50
-75.0001
51
14.9999
0
ARC
8
BLACK
10
276.52
20
-126.599
40
0.3
50
-165
51
-75.0001
0
ARC
8
BLACK
10
273.051
20
-113.656
40
0.3
50
105
51
195
0
LINE
8
BLACK
6
CONTINUOUS
10
276.23
20
-126.677
11
272.762
21
-113.733
0
LINE
8
BLACK
6
CONTINUOUS
10
289.541
20
-123.421
11
276.597
21
-126.889
0
LINE
8
BLACK
6
CONTINUOUS
10
286.285
20
-110.11
11
289.753
21
-123.053
0
LINE
8
BLACK
6
CONTINUOUS
10
272.974
20
-113.366
11
285.917
21
-109.898
0
ARC
8
BLACK
10
142.538
20
-113.256
40
0.299999
50
-14.9999
51
75.0001
0
ARC
8
BLACK
10
139.07
20
-126.199
40
0.299999
50
-105
51
-14.9999
0
ARC
8
BLACK
10
126.126
20
-122.731
40
0.299999
50
165
51
255
0
ARC
8
BLACK
10
129.594
20
-109.788
40
0.299999
50
75.0001
51
165
0
LINE
8
BLACK
6
CONTINUOUS
10
125.836
20
-122.653
11
129.305
21
-109.71
0
LINE
8
BLACK
6
CONTINUOUS
10
138.992
20
-126.489
11
126.049
21
-123.021
0
LINE
8
BLACK
6
CONTINUOUS
10
142.828
20
-113.333
11
139.359
21
-126.277
0
LINE
8
BLACK
6
CONTINUOUS
10
129.672
20
-109.498
11
142.615
21
-112.966
0
LINE
8
BLACK
6
CONTINUOUS
10
111.27
20
-104.564
11
124.213
21
-108.032
0
LINE
8
BLACK
6
CONTINUOUS
10
124.425
20
-108.399
11
120.957
21
-121.343
0
LINE
8
BLACK
6
CONTINUOUS
10
120.59
20
-121.555
11
107.646
21
-118.087
0
LINE
8
BLACK
6
CONTINUOUS
10
107.434
20
-117.719
11
110.902
21
-104.776
0
ARC
8
BLACK
10
111.192
20
-104.854
40
0.299999
50
75.0001
51
165
0
ARC
8
BLACK
10
107.724
20
-117.797
40
0.299999
50
165
51
255
0
ARC
8
BLACK
10
120.667
20
-121.265
40
0.299999
50
-105
51
-14.9999
0
ARC
8
BLACK
10
124.135
20
-108.322
40
0.299999
50
-14.9999
51
75.0001
0
ARC
8
BLACK
10
105.733
20
-103.388
40
0.299999
50
-14.9999
51
75.0001
0
ARC
8
BLACK
10
102.265
20
-116.331
40
0.299999
50
-105
51
-14.9999
0
ARC
8
BLACK
10
89.3216
20
-112.863
40
0.299999
50
165
51
255
0
ARC
8
BLACK
10
92.7897
20
-99.9196
40
0.299999
50
75.0001
51
165
0
LINE
8
BLACK
6
CONTINUOUS
10
89.0318
20
-112.785
11
92.5
21
-99.842
0
LINE
8
BLACK
6
CONTINUOUS
10
102.187
20
-116.621
11
89.2439
21
-113.153
0
LINE
8
BLACK
6
CONTINUOUS
10
106.023
20
-103.465
11
102.555
21
-116.409
0
LINE
8
BLACK
6
CONTINUOUS
10
92.8674
20
-99.6298
11
105.811
21
-103.098
0
LINE
8
BLACK
6
CONTINUOUS
10
148.139
20
-114.19
11
161.082
21
-117.658
0
LINE
8
BLACK
6
CONTINUOUS
10
161.295
20
-118.026
11
157.697
21
-131.452
0
LINE
8
BLACK
6
CONTINUOUS
10
157.33
20
-131.664
11
144.386
21
-128.196
0
LINE
8
BLACK
6
CONTINUOUS
10
144.174
20
-127.829
11
147.772
21
-114.402
0
ARC
8
BLACK
10
148.061
20
-114.48
40
0.3
50
75
51
165
0
ARC
8
BLACK
10
144.464
20
-127.906
40
0.3
50
165
51
255
0
ARC
8
BLACK
10
157.407
20
-131.375
40
0.3
50
-105
51
-15
0
ARC
8
BLACK
10
161.005
20
-117.948
40
0.3
50
-15
51
75
0
ARC
8
BLACK
10
117.633
20
-86.5942
40
0.3
50
-15
51
75
0
ARC
8
BLACK
10
114.035
20
-100.021
40
0.3
50
-105
51
-15
0
ARC
8
BLACK
10
101.092
20
-96.5524
40
0.3
50
165
51
255
0
ARC
8
BLACK
10
104.689
20
-83.1261
40
0.3
50
75
51
165
0
LINE
8
BLACK
6
CONTINUOUS
10
100.802
20
-96.4748
11
104.399
21
-83.0484
0
LINE
8
BLACK
6
CONTINUOUS
10
113.957
20
-100.31
11
101.014
21
-96.8422
0
LINE
8
BLACK
6
CONTINUOUS
10
117.922
20
-86.6719
11
114.325
21
-100.098
0
LINE
8
BLACK
6
CONTINUOUS
10
104.767
20
-82.8363
11
117.71
21
-86.3045
0
ARC
8
BLACK
10
179.889
20
-102.694
40
0.3
50
-15
51
75
0
ARC
8
BLACK
10
176.291
20
-116.121
40
0.3
50
-105
51
-15
0
ARC
8
BLACK
10
163.348
20
-112.652
40
0.3
50
165
51
255
0
ARC
8
BLACK
10
166.945
20
-99.2261
40
0.3
50
75
51
165
0
LINE
8
BLACK
6
CONTINUOUS
10
163.058
20
-112.575
11
166.655
21
-99.1485
0
LINE
8
BLACK
6
CONTINUOUS
10
176.213
20
-116.41
11
163.27
21
-112.942
0
LINE
8
BLACK
6
CONTINUOUS
10
180.178
20
-102.772
11
176.581
21
-116.198
0
LINE
8
BLACK
6
CONTINUOUS
10
167.023
20
-98.9363
11
179.966
21
-102.405
0
LINE
8
BLACK
6
CONTINUOUS
10
167.455
20
-78.9325
11
180.398
21
-82.4006
0
LINE
8
BLACK
6
CONTINUOUS
10
180.61
20
-82.7681
11
177.013
21
-96.1944
0
LINE
8
BLACK
6
CONTINUOUS
10
176.645
20
-96.4066
11
163.702
21
-92.9384
0
LINE
8
BLACK
6
CONTINUOUS
10
163.49
20
-92.571
11
167.087
21
-79.1446
0
ARC
8
BLACK
10
167.377
20
-79.2223
40
0.3
50
75
51
165
0
ARC
8
BLACK
10
163.78
20
-92.6486
40
0.3
50
165
51
255
0
ARC
8
BLACK
10
176.723
20
-96.1168
40
0.3
50
-105
51
-15
0
ARC
8
BLACK
10
180.321
20
-82.6904
40
0.3
50
-15
51
75
0
ARC
8
BLACK
10
161.918
20
-77.7565
40
0.3
50
-15
51
75
0
ARC
8
BLACK
10
158.321
20
-91.1828
40
0.3
50
-105
51
-15
0
ARC
8
BLACK
10
145.377
20
-87.7147
40
0.3
50
165
51
255
0
ARC
8
BLACK
10
148.975
20
-74.2883
40
0.3
50
75
51
165
0
LINE
8
BLACK
6
CONTINUOUS
10
145.087
20
-87.637
11
148.685
21
-74.2107
0
LINE
8
BLACK
6
CONTINUOUS
10
158.243
20
-91.4726
11
145.3
21
-88.0044
0
LINE
8
BLACK
6
CONTINUOUS
10
162.208
20
-77.8341
11
158.61
21
-91.2605
0
LINE
8
BLACK
6
CONTINUOUS
10
149.052
20
-73.9985
11
161.996
21
-77.4667
0
LINE
8
BLACK
6
CONTINUOUS
10
130.65
20
-69.0646
11
143.594
21
-72.5327
0
LINE
8
BLACK
6
CONTINUOUS
10
143.806
20
-72.9002
11
140.208
21
-86.3265
0
LINE
8
BLACK
6
CONTINUOUS
10
139.841
20
-86.5387
11
126.897
21
-83.0705
0
LINE
8
BLACK
6
CONTINUOUS
10
126.685
20
-82.7031
11
130.283
21
-69.2767
0
ARC
8
BLACK
10
130.573
20
-69.3543
40
0.3
50
75
51
165
0
ARC
8
BLACK
10
126.975
20
-82.7807
40
0.3
50
165
51
255
0
ARC
8
BLACK
10
139.918
20
-86.2489
40
0.3
50
-105
51
-15
0
ARC
8
BLACK
10
143.516
20
-72.8225
40
0.3
50
-15
51
75
0
ARC
8
BLACK
10
125.114
20
-67.8886
40
0.3
50
-15
51
75
0
ARC
8
BLACK
10
121.516
20
-81.3149
40
0.3
50
-105
51
-15
0
ARC
8
BLACK
10
108.573
20
-77.8468
40
0.3
50
165
51
255
0
ARC
8
BLACK
10
112.17
20
-64.4204
40
0.3
50
75
51
165
0
LINE
8
BLACK
6
CONTINUOUS
10
108.283
20
-77.7691
11
111.88
21
-64.3427
0
LINE
8
BLACK
6
CONTINUOUS
10
121.438
20
-81.6047
11
108.495
21
-78.1365
0
LINE
8
BLACK
6
CONTINUOUS
10
125.403
20
-67.9662
11
121.806
21
-81.3926
0
LINE
8
BLACK
6
CONTINUOUS
10
112.248
20
-64.1306
11
125.191
21
-67.5988
0
ARC
8
BLACK
10
120.846
20
-47.0193
40
0.3
50
-15
51
75
0
ARC
8
BLACK
10
117.249
20
-60.4457
40
0.3
50
-105
51
-15
0
ARC
8
BLACK
10
104.305
20
-56.9775
40
0.3
50
165
51
255
0
ARC
8
BLACK
10
107.903
20
-43.5511
40
0.3
50
75
51
165
0
LINE
8
BLACK
6
CONTINUOUS
10
104.016
20
-56.8998
11
107.613
21
-43.4735
0
LINE
8
BLACK
6
CONTINUOUS
10
117.171
20
-60.7354
11
104.228
21
-57.2673
0
LINE
8
BLACK
6
CONTINUOUS
10
121.136
20
-47.0969
11
117.539
21
-60.5233
0
LINE
8
BLACK
6
CONTINUOUS
10
107.981
20
-43.2613
11
120.924
21
-46.7295
0
LINE
8
BLACK
6
CONTINUOUS
10
126.383
20
-48.1953
11
139.326
21
-51.6635
0
LINE
8
BLACK
6
CONTINUOUS
10
139.539
20
-52.0309
11
135.941
21
-65.4573
0
LINE
8
BLACK
6
CONTINUOUS
10
135.574
20
-65.6694
11
122.63
21
-62.2012
0
LINE
8
BLACK
6
CONTINUOUS
10
122.418
20
-61.8338
11
126.016
21
-48.4074
0
ARC
8
BLACK
10
126.305
20
-48.4851
40
0.3
50
75
51
165
0
ARC
8
BLACK
10
122.708
20
-61.9114
40
0.3
50
165
51
255
0
ARC
8
BLACK
10
135.651
20
-65.3796
40
0.3
50
-105
51
-15
0
ARC
8
BLACK
10
139.249
20
-51.9533
40
0.3
50
-15
51
75
0
ARC
8
BLACK
10
157.651
20
-56.8872
40
0.3
50
-15
51
75
0
ARC
8
BLACK
10
154.053
20
-70.3136
40
0.3
50
-105
51
-15
0
ARC
8
BLACK
10
141.11
20
-66.8454
40
0.3
50
165
51
255
0
ARC
8
BLACK
10
144.708
20
-53.419
40
0.3
50
75
51
165
0
LINE
8
BLACK
6
CONTINUOUS
10
140.82
20
-66.7678
11
144.418
21
-53.3414
0
LINE
8
BLACK
6
CONTINUOUS
10
153.976
20
-70.6034
11
141.032
21
-67.1352
0
LINE
8
BLACK
6
CONTINUOUS
10
157.941
20
-56.9649
11
154.343
21
-70.3912
0
LINE
8
BLACK
6
CONTINUOUS
10
144.785
20
-53.1293
11
157.729
21
-56.5974
0
LINE
8
BLACK
6
CONTINUOUS
10
163.188
20
-58.0632
11
176.131
21
-61.5314
0
LINE
8
BLACK
6
CONTINUOUS
10
176.343
20
-61.8988
11
172.746
21
-75.3252
0
LINE
8
BLACK
6
CONTINUOUS
10
172.378
20
-75.5373
11
159.435
21
-72.0691
0
LINE
8
BLACK
6
CONTINUOUS
10
159.223
20
-71.7017
11
162.82
21
-58.2754
0
ARC
8
BLACK
10
163.11
20
-58.353
40
0.3
50
75
51
165
0
ARC
8
BLACK
10
159.512
20
-71.7794
40
0.3
50
165
51
255
0
ARC
8
BLACK
10
172.456
20
-75.2475
40
0.3
50
-105
51
-15
0
ARC
8
BLACK
10
176.053
20
-61.8212
40
0.3
50
-15
51
75
0
ARC
8
BLACK
10
176.387
20
-42.1854
40
0.3
50
-15
51
75
0
ARC
8
BLACK
10
172.789
20
-55.6118
40
0.3
50
-105
51
-15
0
ARC
8
BLACK
10
159.846
20
-52.1436
40
0.3
50
165
51
255
0
ARC
8
BLACK
10
163.443
20
-38.7172
40
0.3
50
75
51
165
0
LINE
8
BLACK
6
CONTINUOUS
10
159.556
20
-52.0659
11
163.154
21
-38.6396
0
LINE
8
BLACK
6
CONTINUOUS
10
172.712
20
-55.9015
11
159.768
21
-52.4334
0
LINE
8
BLACK
6
CONTINUOUS
10
176.677
20
-42.263
11
173.079
21
-55.6894
0
LINE
8
BLACK
6
CONTINUOUS
10
163.521
20
-38.4274
11
176.464
21
-41.8956
0
LINE
8
BLACK
6
CONTINUOUS
10
145.119
20
-33.4935
11
158.062
21
-36.9616
0
LINE
8
BLACK
6
CONTINUOUS
10
158.274
20
-37.3291
11
154.677
21
-50.7554
0
LINE
8
BLACK
6
CONTINUOUS
10
154.309
20
-50.9676
11
141.366
21
-47.4994
0
LINE
8
BLACK
6
CONTINUOUS
10
141.154
20
-47.132
11
144.751
21
-33.7056
0
ARC
8
BLACK
10
145.041
20
-33.7832
40
0.3
50
75
51
165
0
ARC
8
BLACK
10
141.443
20
-47.2096
40
0.3
50
165
51
255
0
ARC
8
BLACK
10
154.387
20
-50.6778
40
0.3
50
-105
51
-15
0
ARC
8
BLACK
10
157.984
20
-37.2514
40
0.3
50
-15
51
75
0
ARC
8
BLACK
10
139.582
20
-32.3175
40
0.3
50
-15
51
75
0
ARC
8
BLACK
10
135.985
20
-45.7438
40
0.3
50
-105
51
-15
0
ARC
8
BLACK
10
123.041
20
-42.2757
40
0.3
50
165
51
255
0
ARC
8
BLACK
10
126.639
20
-28.8493
40
0.3
50
75
51
165
0
LINE
8
BLACK
6
CONTINUOUS
10
122.751
20
-42.198
11
126.349
21
-28.7716
0
LINE
8
BLACK
6
CONTINUOUS
10
135.907
20
-46.0336
11
122.963
21
-42.5654
0
LINE
8
BLACK
6
CONTINUOUS
10
139.872
20
-32.3951
11
136.274
21
-45.8215
0
LINE
8
BLACK
6
CONTINUOUS
10
126.716
20
-28.5595
11
139.66
21
-32.0277
0
LINE
8
BLACK
6
CONTINUOUS
10
108.314
20
-23.6255
11
121.257
21
-27.0937
0
LINE
8
BLACK
6
CONTINUOUS
10
121.47
20
-27.4611
11
117.872
21
-40.8875
0
LINE
8
BLACK
6
CONTINUOUS
10
117.505
20
-41.0996
11
104.561
21
-37.6315
0
LINE
8
BLACK
6
CONTINUOUS
10
104.349
20
-37.264
11
107.947
21
-23.8377
0
ARC
8
BLACK
10
108.236
20
-23.9153
40
0.3
50
75
51
165
0
ARC
8
BLACK
10
104.639
20
-37.3417
40
0.3
50
165
51
255
0
ARC
8
BLACK
10
117.582
20
-40.8099
40
0.3
50
-105
51
-15
0
ARC
8
BLACK
10
121.18
20
-27.3835
40
0.3
50
-15
51
75
0
ARC
8
BLACK
10
244.785
20
-41.0907
40
0.299999
50
15.0001
51
105
0
ARC
8
BLACK
10
248.382
20
-54.5171
40
0.3
50
-75
51
15
0
ARC
8
BLACK
10
235.439
20
-57.9853
40
0.299999
50
-165
51
-74.9999
0
ARC
8
BLACK
10
231.841
20
-44.5589
40
0.3
50
105
51
195
0
LINE
8
BLACK
6
CONTINUOUS
10
235.149
20
-58.0629
11
231.552
21
-44.6365
0
LINE
8
BLACK
6
CONTINUOUS
10
248.46
20
-54.8069
11
235.517
21
-58.2751
0
LINE
8
BLACK
6
CONTINUOUS
10
245.075
20
-41.0131
11
248.672
21
-54.4395
0
LINE
8
BLACK
6
CONTINUOUS
10
231.764
20
-44.2691
11
244.707
21
-40.801
0
LINE
8
BLACK
6
CONTINUOUS
10
250.166
20
-39.3352
11
263.109
21
-35.867
0
LINE
8
BLACK
6
CONTINUOUS
10
263.477
20
-36.0791
11
267.074
21
-49.5055
0
LINE
8
BLACK
6
CONTINUOUS
10
266.862
20
-49.8729
11
253.919
21
-53.3411
0
LINE
8
BLACK
6
CONTINUOUS
10
253.552
20
-53.129
11
249.954
21
-39.7026
0
ARC
8
BLACK
10
250.244
20
-39.625
40
0.3
50
105
51
195
0
ARC
8
BLACK
10
253.841
20
-53.0513
40
0.299999
50
-165
51
-74.9999
0
ARC
8
BLACK
10
266.785
20
-49.5831
40
0.3
50
-75
51
15
0
ARC
8
BLACK
10
263.187
20
-36.1568
40
0.299999
50
15.0001
51
105
0
ARC
8
BLACK
10
281.589
20
-31.2228
40
0.299999
50
15.0001
51
105
0
ARC
8
BLACK
10
285.187
20
-44.6492
40
0.3
50
-75
51
15
0
ARC
8
BLACK
10
272.244
20
-48.1174
40
0.299999
50
-165
51
-74.9999
0
ARC
8
BLACK
10
268.646
20
-34.691
40
0.3
50
105
51
195
0
LINE
8
BLACK
6
CONTINUOUS
10
271.954
20
-48.195
11
268.356
21
-34.7686
0
LINE
8
BLACK
6
CONTINUOUS
10
285.265
20
-44.939
11
272.321
21
-48.4071
0
LINE
8
BLACK
6
CONTINUOUS
10
281.879
20
-31.1452
11
285.477
21
-44.5716
0
LINE
8
BLACK
6
CONTINUOUS
10
268.568
20
-34.4012
11
281.512
21
-30.933
0
LINE
8
BLACK
6
CONTINUOUS
10
286.971
20
-29.4673
11
299.914
21
-25.9991
0
LINE
8
BLACK
6
CONTINUOUS
10
300.282
20
-26.2112
11
303.879
21
-39.6376
0
LINE
8
BLACK
6
CONTINUOUS
10
303.667
20
-40.005
11
290.724
21
-43.4732
0
LINE
8
BLACK
6
CONTINUOUS
10
290.356
20
-43.2611
11
286.759
21
-29.8347
0
ARC
8
BLACK
10
287.048
20
-29.7571
40
0.3
50
105
51
195
0
ARC
8
BLACK
10
290.646
20
-43.1834
40
0.299999
50
-165
51
-74.9999
0
ARC
8
BLACK
10
303.589
20
-39.7152
40
0.3
50
-75
51
15
0
ARC
8
BLACK
10
299.992
20
-26.2889
40
0.299999
50
15.0001
51
105
0
ARC
8
BLACK
10
309.526
20
-43.4577
40
0.299999
50
15.0001
51
105
0
ARC
8
BLACK
10
313.124
20
-56.884
40
0.3
50
-75
51
15
0
ARC
8
BLACK
10
300.18
20
-60.3522
40
0.299999
50
-165
51
-74.9999
0
ARC
8
BLACK
10
296.583
20
-46.9258
40
0.3
50
105
51
195
0
LINE
8
BLACK
6
CONTINUOUS
10
299.891
20
-60.4298
11
296.293
21
-47.0035
0
LINE
8
BLACK
6
CONTINUOUS
10
313.202
20
-57.1738
11
300.258
21
-60.642
0
LINE
8
BLACK
6
CONTINUOUS
10
309.816
20
-43.38
11
313.414
21
-56.8064
0
LINE
8
BLACK
6
CONTINUOUS
10
296.505
20
-46.6361
11
309.449
21
-43.1679
0
LINE
8
BLACK
6
CONTINUOUS
10
278.103
20
-51.57
11
291.046
21
-48.1018
0
LINE
8
BLACK
6
CONTINUOUS
10
291.414
20
-48.314
11
295.011
21
-61.7403
0
LINE
8
BLACK
6
CONTINUOUS
10
294.799
20
-62.1078
11
281.856
21
-65.5759
0
LINE
8
BLACK
6
CONTINUOUS
10
281.488
20
-65.3638
11
277.891
21
-51.9374
0
ARC
8
BLACK
10
278.181
20
-51.8598
40
0.3
50
105
51
195
0
ARC
8
BLACK
10
281.778
20
-65.2862
40
0.299999
50
-165
51
-74.9999
0
ARC
8
BLACK
10
294.722
20
-61.818
40
0.3
50
-75
51
15
0
ARC
8
BLACK
10
291.124
20
-48.3916
40
0.299999
50
15.0001
51
105
0
ARC
8
BLACK
10
272.722
20
-53.3256
40
0.299999
50
15.0001
51
105
0
ARC
8
BLACK
10
276.319
20
-66.7519
40
0.3
50
-75
51
15
0
ARC
8
BLACK
10
263.376
20
-70.2201
40
0.299999
50
-165
51
-74.9999
0
ARC
8
BLACK
10
259.778
20
-56.7938
40
0.3
50
105
51
195
0
LINE
8
BLACK
6
CONTINUOUS
10
263.086
20
-70.2978
11
259.488
21
-56.8714
0
LINE
8
BLACK
6
CONTINUOUS
10
276.397
20
-67.0417
11
263.453
21
-70.5099
0
LINE
8
BLACK
6
CONTINUOUS
10
273.011
20
-53.2479
11
276.609
21
-66.6743
0
LINE
8
BLACK
6
CONTINUOUS
10
259.701
20
-56.504
11
272.644
21
-53.0358
0
LINE
8
BLACK
6
CONTINUOUS
10
241.298
20
-61.4379
11
254.242
21
-57.9698
0
LINE
8
BLACK
6
CONTINUOUS
10
254.609
20
-58.1819
11
258.207
21
-71.6083
0
LINE
8
BLACK
6
CONTINUOUS
10
257.995
20
-71.9757
11
245.051
21
-75.4439
0
LINE
8
BLACK
6
CONTINUOUS
10
244.684
20
-75.2317
11
241.086
21
-61.8054
0
ARC
8
BLACK
10
241.376
20
-61.7277
40
0.3
50
105
51
195
0
ARC
8
BLACK
10
244.973
20
-75.1541
40
0.299999
50
-165
51
-74.9999
0
ARC
8
BLACK
10
257.917
20
-71.6859
40
0.3
50
-75
51
15
0
ARC
8
BLACK
10
254.319
20
-58.2595
40
0.299999
50
15.0001
51
105
0
ARC
8
BLACK
10
250.052
20
-79.1288
40
0.299999
50
15.0001
51
105
0
ARC
8
BLACK
10
253.65
20
-92.5552
40
0.3
50
-75
51
15
0
ARC
8
BLACK
10
240.706
20
-96.0234
40
0.299999
50
-165
51
-74.9999
0
ARC
8
BLACK
10
237.109
20
-82.597
40
0.3
50
105
51
195
0
LINE
8
BLACK
6
CONTINUOUS
10
240.417
20
-96.101
11
236.819
21
-82.6746
0
LINE
8
BLACK
6
CONTINUOUS
10
253.727
20
-92.845
11
240.784
21
-96.3131
0
LINE
8
BLACK
6
CONTINUOUS
10
250.342
20
-79.0512
11
253.939
21
-92.4775
0
LINE
8
BLACK
6
CONTINUOUS
10
237.031
20
-82.3072
11
249.974
21
-78.839
0
LINE
8
BLACK
6
CONTINUOUS
10
255.433
20
-77.3733
11
268.377
21
-73.9051
0
LINE
8
BLACK
6
CONTINUOUS
10
268.744
20
-74.1172
11
272.342
21
-87.5436
0
LINE
8
BLACK
6
CONTINUOUS
10
272.13
20
-87.911
11
259.186
21
-91.3792
0
LINE
8
BLACK
6
CONTINUOUS
10
258.819
20
-91.167
11
255.221
21
-77.7407
0
ARC
8
BLACK
10
255.511
20
-77.663
40
0.3
50
105
51
195
0
ARC
8
BLACK
10
259.109
20
-91.0894
40
0.299999
50
-165
51
-74.9999
0
ARC
8
BLACK
10
272.052
20
-87.6212
40
0.3
50
-75
51
15
0
ARC
8
BLACK
10
268.454
20
-74.1949
40
0.299999
50
15.0001
51
105
0
ARC
8
BLACK
10
286.857
20
-69.2609
40
0.299999
50
15.0001
51
105
0
ARC
8
BLACK
10
290.454
20
-82.6873
40
0.3
50
-75
51
15
0
ARC
8
BLACK
10
277.511
20
-86.1554
40
0.299999
50
-165
51
-74.9999
0
ARC
8
BLACK
10
273.913
20
-72.7291
40
0.3
50
105
51
195
0
LINE
8
BLACK
6
CONTINUOUS
10
277.221
20
-86.2331
11
273.624
21
-72.8067
0
LINE
8
BLACK
6
CONTINUOUS
10
290.532
20
-82.977
11
277.589
21
-86.4452
0
LINE
8
BLACK
6
CONTINUOUS
10
287.147
20
-69.1833
11
290.744
21
-82.6096
0
LINE
8
BLACK
6
CONTINUOUS
10
273.836
20
-72.4393
11
286.779
21
-68.9711
0
LINE
8
BLACK
6
CONTINUOUS
10
292.238
20
-67.5053
11
305.181
21
-64.0372
0
LINE
8
BLACK
6
CONTINUOUS
10
305.549
20
-64.2493
11
309.146
21
-77.6757
0
LINE
8
BLACK
6
CONTINUOUS
10
308.934
20
-78.0431
11
295.991
21
-81.5113
0
LINE
8
BLACK
6
CONTINUOUS
10
295.623
20
-81.2991
11
292.026
21
-67.8728
0
ARC
8
BLACK
10
292.316
20
-67.7951
40
0.3
50
105
51
195
0
ARC
8
BLACK
10
295.913
20
-81.2215
40
0.299999
50
-165
51
-74.9999
0
ARC
8
BLACK
10
308.857
20
-77.7533
40
0.3
50
-75
51
15
0
ARC
8
BLACK
10
305.259
20
-64.3269
40
0.299999
50
15.0001
51
105
0
ARC
8
BLACK
10
311.82
20
-83.2793
40
0.299999
50
15.0001
51
105
0
ARC
8
BLACK
10
315.418
20
-96.7057
40
0.3
50
-75
51
15
0
ARC
8
BLACK
10
302.474
20
-100.174
40
0.299999
50
-165
51
-74.9999
0
ARC
8
BLACK
10
298.877
20
-86.7475
40
0.3
50
105
51
195
0
LINE
8
BLACK
6
CONTINUOUS
10
302.184
20
-100.251
11
298.587
21
-86.8251
0
LINE
8
BLACK
6
CONTINUOUS
10
315.495
20
-96.9955
11
302.552
21
-100.464
0
LINE
8
BLACK
6
CONTINUOUS
10
312.11
20
-83.2017
11
315.707
21
-96.628
0
LINE
8
BLACK
6
CONTINUOUS
10
298.799
20
-86.4577
11
311.742
21
-82.9895
0
ARC
8
BLACK
10
249.564
20
-99.3794
40
0.299999
50
15.0001
51
105
0
ARC
8
BLACK
10
253.162
20
-112.806
40
0.3
50
-75
51
15
0
ARC
8
BLACK
10
240.218
20
-116.274
40
0.299999
50
-165
51
-74.9999
0
ARC
8
BLACK
10
236.621
20
-102.848
40
0.3
50
105
51
195
0
LINE
8
BLACK
6
CONTINUOUS
10
239.929
20
-116.352
11
236.331
21
-102.925
0
LINE
8
BLACK
6
CONTINUOUS
10
253.239
20
-113.095
11
240.296
21
-116.564
0
LINE
8
BLACK
6
CONTINUOUS
10
249.854
20
-99.3017
11
253.451
21
-112.728
0
LINE
8
BLACK
6
CONTINUOUS
10
236.543
20
-102.558
11
249.486
21
-99.0896
0
LINE
8
BLACK
6
CONTINUOUS
10
254.507
20
-118.058
11
267.45
21
-114.59
0
LINE
8
BLACK
6
CONTINUOUS
10
267.817
20
-114.802
11
271.415
21
-128.229
0
LINE
8
BLACK
6
CONTINUOUS
10
271.203
20
-128.596
11
258.26
21
-132.064
0
LINE
8
BLACK
6
CONTINUOUS
10
257.892
20
-131.852
11
254.295
21
-118.426
0
ARC
8
BLACK
10
254.584
20
-118.348
40
0.3
50
105
51
195
0
ARC
8
BLACK
10
258.182
20
-131.775
40
0.299999
50
-165
51
-74.9999
0
ARC
8
BLACK
10
271.125
20
-128.306
40
0.3
50
-75
51
15
0
ARC
8
BLACK
10
267.528
20
-114.88
40
0.299999
50
15.0001
51
105
0
LINE
8
BLACK
6
CONTINUOUS
10
335.155
20
-100.4
11
348.555
21
-100.4
0
LINE
8
BLACK
6
CONTINUOUS
10
348.855
20
-100.7
11
348.855
21
-114.6
0
LINE
8
BLACK
6
CONTINUOUS
10
348.555
20
-114.9
11
335.155
21
-114.9
0
LINE
8
BLACK
6
CONTINUOUS
10
334.855
20
-114.6
11
334.855
21
-100.7
0
ARC
8
BLACK
10
335.155
20
-100.7
40
0.3
50
90
51
180
0
ARC
8
BLACK
10
335.155
20
-114.6
40
0.3
50
180
51
270
0
ARC
8
BLACK
10
348.555
20
-114.6
40
0.3
50
-90
51
-0
0
ARC
8
BLACK
10
348.555
20
-100.7
40
0.3
50
-0
51
90
0
ARC
8
BLACK
10
367.605
20
-100.7
40
0.3
50
-0
51
90
0
ARC
8
BLACK
10
367.605
20
-114.6
40
0.3
50
-90
51
-0
0
ARC
8
BLACK
10
354.205
20
-114.6
40
0.3
50
180
51
270
0
ARC
8
BLACK
10
354.205
20
-100.7
40
0.3
50
90
51
180
0
LINE
8
BLACK
6
CONTINUOUS
10
353.905
20
-114.6
11
353.905
21
-100.7
0
LINE
8
BLACK
6
CONTINUOUS
10
367.605
20
-114.9
11
354.205
21
-114.9
0
LINE
8
BLACK
6
CONTINUOUS
10
367.905
20
-100.7
11
367.905
21
-114.6
0
LINE
8
BLACK
6
CONTINUOUS
10
354.205
20
-100.4
11
367.605
21
-100.4
0
LINE
8
BLACK
6
CONTINUOUS
10
373.255
20
-100.4
11
386.655
21
-100.4
0
LINE
8
BLACK
6
CONTINUOUS
10
386.955
20
-100.7
11
386.955
21
-114.6
0
LINE
8
BLACK
6
CONTINUOUS
10
386.655
20
-114.9
11
373.255
21
-114.9
0
LINE
8
BLACK
6
CONTINUOUS
10
372.955
20
-114.6
11
372.955
21
-100.7
0
ARC
8
BLACK
10
373.255
20
-100.7
40
0.3
50
90
51
180
0
ARC
8
BLACK
10
373.255
20
-114.6
40
0.3
50
180
51
270
0
ARC
8
BLACK
10
386.655
20
-114.6
40
0.3
50
-90
51
-0
0
ARC
8
BLACK
10
386.655
20
-100.7
40
0.3
50
-0
51
90
0
ARC
8
BLACK
10
386.655
20
-81.65
40
0.3
50
-0
51
90
0
ARC
8
BLACK
10
386.655
20
-95.55
40
0.3
50
-90
51
-0
0
ARC
8
BLACK
10
373.255
20
-95.55
40
0.3
50
180
51
270
0
ARC
8
BLACK
10
373.255
20
-81.65
40
0.3
50
90
51
180
0
LINE
8
BLACK
6
CONTINUOUS
10
372.955
20
-95.55
11
372.955
21
-81.65
0
LINE
8
BLACK
6
CONTINUOUS
10
386.655
20
-95.85
11
373.255
21
-95.85
0
LINE
8
BLACK
6
CONTINUOUS
10
386.955
20
-81.65
11
386.955
21
-95.55
0
LINE
8
BLACK
6
CONTINUOUS
10
373.255
20
-81.35
11
386.655
21
-81.35
0
LINE
8
BLACK
6
CONTINUOUS
10
354.205
20
-81.35
11
367.605
21
-81.35
0
LINE
8
BLACK
6
CONTINUOUS
10
367.905
20
-81.65
11
367.905
21
-95.55
0
LINE
8
BLACK
6
CONTINUOUS
10
367.605
20
-95.85
11
354.205
21
-95.85
0
LINE
8
BLACK
6
CONTINUOUS
10
353.905
20
-95.55
11
353.905
21
-81.65
0
ARC
8
BLACK
10
354.205
20
-81.65
40
0.3
50
90
51
180
0
ARC
8
BLACK
10
354.205
20
-95.55
40
0.3
50
180
51
270
0
ARC
8
BLACK
10
367.605
20
-95.55
40
0.3
50
-90
51
-0
0
ARC
8
BLACK
10
367.605
20
-81.65
40
0.3
50
-0
51
90
0
ARC
8
BLACK
10
348.555
20
-81.65
40
0.3
50
-0
51
90
0
ARC
8
BLACK
10
348.555
20
-95.55
40
0.3
50
-90
51
-0
0
ARC
8
BLACK
10
335.155
20
-95.55
40
0.3
50
180
51
270
0
ARC
8
BLACK
10
335.155
20
-81.65
40
0.3
50
90
51
180
0
LINE
8
BLACK
6
CONTINUOUS
10
334.855
20
-95.55
11
334.855
21
-81.65
0
LINE
8
BLACK
6
CONTINUOUS
10
348.555
20
-95.85
11
335.155
21
-95.85
0
LINE
8
BLACK
6
CONTINUOUS
10
348.855
20
-81.65
11
348.855
21
-95.55
0
LINE
8
BLACK
6
CONTINUOUS
10
335.155
20
-81.35
11
348.555
21
-81.35
0
LINE
8
BLACK
6
CONTINUOUS
10
317.058
20
-62.3
11
330.457
21
-62.3
0
LINE
8
BLACK
6
CONTINUOUS
10
330.757
20
-62.6
11
330.757
21
-76.5
0
LINE
8
BLACK
6
CONTINUOUS
10
330.457
20
-76.8
11
317.058
21
-76.8
0
LINE
8
BLACK
6
CONTINUOUS
10
316.757
20
-76.5
11
316.757
21
-62.6
0
ARC
8
BLACK
10
317.058
20
-62.6
40
0.3
50
90
51
180
0
ARC
8
BLACK
10
317.058
20
-76.5
40
0.3
50
180
51
270
0
ARC
8
BLACK
10
330.457
20
-76.5
40
0.3
50
-90
51
-0
0
ARC
8
BLACK
10
330.457
20
-62.6
40
0.3
50
-0
51
90
0
ARC
8
BLACK
10
349.507
20
-62.6
40
0.3
50
-0
51
90
0
ARC
8
BLACK
10
349.507
20
-76.5
40
0.3
50
-90
51
-0
0
ARC
8
BLACK
10
336.107
20
-76.5
40
0.3
50
180
51
270
0
ARC
8
BLACK
10
336.107
20
-62.6
40
0.3
50
90
51
180
0
LINE
8
BLACK
6
CONTINUOUS
10
335.808
20
-76.5
11
335.808
21
-62.6
0
LINE
8
BLACK
6
CONTINUOUS
10
349.507
20
-76.8
11
336.107
21
-76.8
0
LINE
8
BLACK
6
CONTINUOUS
10
349.808
20
-62.6
11
349.808
21
-76.5
0
LINE
8
BLACK
6
CONTINUOUS
10
336.107
20
-62.3
11
349.507
21
-62.3
0
ARC
8
BLACK
10
379.511
20
-43.55
40
0.3
50
-0
51
90
0
ARC
8
BLACK
10
379.511
20
-57.45
40
0.3
50
-90
51
-0
0
ARC
8
BLACK
10
366.111
20
-57.45
40
0.3
50
180
51
270
0
ARC
8
BLACK
10
366.111
20
-43.55
40
0.3
50
90
51
180
0
LINE
8
BLACK
6
CONTINUOUS
10
365.811
20
-57.45
11
365.811
21
-43.55
0
LINE
8
BLACK
6
CONTINUOUS
10
379.511
20
-57.75
11
366.111
21
-57.75
0
LINE
8
BLACK
6
CONTINUOUS
10
379.811
20
-43.55
11
379.811
21
-57.45
0
LINE
8
BLACK
6
CONTINUOUS
10
366.111
20
-43.25
11
379.511
21
-43.25
0
LINE
8
BLACK
6
CONTINUOUS
10
339.917
20
-43.25
11
353.317
21
-43.25
0
LINE
8
BLACK
6
CONTINUOUS
10
353.618
20
-43.55
11
353.618
21
-57.45
0
LINE
8
BLACK
6
CONTINUOUS
10
353.317
20
-57.75
11
339.917
21
-57.75
0
LINE
8
BLACK
6
CONTINUOUS
10
339.618
20
-57.45
11
339.618
21
-43.55
0
ARC
8
BLACK
10
339.917
20
-43.55
40
0.3
50
90
51
180
0
ARC
8
BLACK
10
339.917
20
-57.45
40
0.3
50
180
51
270
0
ARC
8
BLACK
10
353.317
20
-57.45
40
0.3
50
-90
51
-0
0
ARC
8
BLACK
10
353.317
20
-43.55
40
0.3
50
-0
51
90
0
ARC
8
BLACK
10
334.267
20
-43.55
40
0.3
50
-0
51
90
0
ARC
8
BLACK
10
334.267
20
-57.45
40
0.3
50
-90
51
-0
0
ARC
8
BLACK
10
320.868
20
-57.45
40
0.3
50
180
51
270
0
ARC
8
BLACK
10
320.868
20
-43.55
40
0.3
50
90
51
180
0
LINE
8
BLACK
6
CONTINUOUS
10
320.567
20
-57.45
11
320.567
21
-43.55
0
LINE
8
BLACK
6
CONTINUOUS
10
334.267
20
-57.75
11
320.868
21
-57.75
0
LINE
8
BLACK
6
CONTINUOUS
10
334.567
20
-43.55
11
334.567
21
-57.45
0
LINE
8
BLACK
6
CONTINUOUS
10
320.868
20
-43.25
11
334.267
21
-43.25
0
LINE
8
BLACK
6
CONTINUOUS
10
311.342
20
-23.2475
11
324.743
21
-23.2475
0
LINE
8
BLACK
6
CONTINUOUS
10
325.042
20
-23.5475
11
325.042
21
-37.4475
0
LINE
8
BLACK
6
CONTINUOUS
10
324.743
20
-37.7475
11
311.342
21
-37.7475
0
LINE
8
BLACK
6
CONTINUOUS
10
311.042
20
-37.4475
11
311.042
21
-23.5475
0
ARC
8
BLACK
10
311.342
20
-23.5475
40
0.3
50
90
51
180
0
ARC
8
BLACK
10
311.342
20
-37.4475
40
0.3
50
180
51
270
0
ARC
8
BLACK
10
324.743
20
-37.4475
40
0.3
50
-90
51
-0
0
ARC
8
BLACK
10
324.743
20
-23.5475
40
0.3
50
-0
51
90
0
ARC
8
BLACK
10
343.792
20
-24.5
40
0.3
50
-0
51
90
0
ARC
8
BLACK
10
343.792
20
-38.4
40
0.3
50
-90
51
-0
0
ARC
8
BLACK
10
330.392
20
-38.4
40
0.3
50
180
51
270
0
ARC
8
BLACK
10
330.392
20
-24.5
40
0.3
50
90
51
180
0
LINE
8
BLACK
6
CONTINUOUS
10
330.092
20
-38.4
11
330.092
21
-24.5
0
LINE
8
BLACK
6
CONTINUOUS
10
343.792
20
-38.7
11
330.392
21
-38.7
0
LINE
8
BLACK
6
CONTINUOUS
10
344.092
20
-24.5
11
344.092
21
-38.4
0
LINE
8
BLACK
6
CONTINUOUS
10
330.392
20
-24.2
11
343.792
21
-24.2
0
LINE
8
BLACK
6
CONTINUOUS
10
349.442
20
-24.2
11
362.842
21
-24.2
0
LINE
8
BLACK
6
CONTINUOUS
10
363.142
20
-24.5
11
363.142
21
-38.4
0
LINE
8
BLACK
6
CONTINUOUS
10
362.842
20
-38.7
11
349.442
21
-38.7
0
LINE
8
BLACK
6
CONTINUOUS
10
349.142
20
-38.4
11
349.142
21
-24.5
0
ARC
8
BLACK
10
349.442
20
-24.5
40
0.3
50
90
51
180
0
ARC
8
BLACK
10
349.442
20
-38.4
40
0.3
50
180
51
270
0
ARC
8
BLACK
10
362.842
20
-38.4
40
0.3
50
-90
51
-0
0
ARC
8
BLACK
10
362.842
20
-24.5
40
0.3
50
-0
51
90
0
ARC
8
BLACK
10
381.892
20
-24.5
40
0.3
50
-0
51
90
0
ARC
8
BLACK
10
381.892
20
-38.4
40
0.3
50
-90
51
-0
0
ARC
8
BLACK
10
368.493
20
-38.4
40
0.3
50
180
51
270
0
ARC
8
BLACK
10
368.493
20
-24.5
40
0.3
50
90
51
180
0
LINE
8
BLACK
6
CONTINUOUS
10
368.192
20
-38.4
11
368.192
21
-24.5
0
LINE
8
BLACK
6
CONTINUOUS
10
381.892
20
-38.7
11
368.493
21
-38.7
0
LINE
8
BLACK
6
CONTINUOUS
10
382.192
20
-24.5
11
382.192
21
-38.4
0
LINE
8
BLACK
6
CONTINUOUS
10
368.493
20
-24.2
11
381.892
21
-24.2
0
LINE
8
BLACK
6
CONTINUOUS
10
67.8255
20
-100.395
11
81.2255
21
-100.395
0
LINE
8
BLACK
6
CONTINUOUS
10
81.5255
20
-100.695
11
81.5255
21
-114.596
0
LINE
8
BLACK
6
CONTINUOUS
10
81.2255
20
-114.895
11
67.8255
21
-114.895
0
LINE
8
BLACK
6
CONTINUOUS
10
67.5255
20
-114.596
11
67.5255
21
-100.695
0
ARC
8
BLACK
10
67.8255
20
-100.695
40
0.3
50
90
51
180
0
ARC
8
BLACK
10
67.8255
20
-114.596
40
0.3
50
180
51
270
0
ARC
8
BLACK
10
81.2255
20
-114.596
40
0.3
50
-90
51
-0
0
ARC
8
BLACK
10
81.2255
20
-100.695
40
0.3
50
-0
51
90
0
ARC
8
BLACK
10
62.1755
20
-100.695
40
0.3
50
-0
51
90
0
ARC
8
BLACK
10
62.1755
20
-114.596
40
0.3
50
-90
51
-0
0
ARC
8
BLACK
10
48.7755
20
-114.596
40
0.3
50
180
51
270
0
ARC
8
BLACK
10
48.7755
20
-100.695
40
0.3
50
90
51
180
0
LINE
8
BLACK
6
CONTINUOUS
10
48.4755
20
-114.596
11
48.4755
21
-100.695
0
LINE
8
BLACK
6
CONTINUOUS
10
62.1755
20
-114.895
11
48.7755
21
-114.895
0
LINE
8
BLACK
6
CONTINUOUS
10
62.4755
20
-100.695
11
62.4755
21
-114.596
0
LINE
8
BLACK
6
CONTINUOUS
10
48.7755
20
-100.395
11
62.1755
21
-100.395
0
LINE
8
BLACK
6
CONTINUOUS
10
29.7255
20
-100.395
11
43.1255
21
-100.395
0
LINE
8
BLACK
6
CONTINUOUS
10
43.4255
20
-100.695
11
43.4255
21
-114.596
0
LINE
8
BLACK
6
CONTINUOUS
10
43.1255
20
-114.895
11
29.7255
21
-114.895
0
LINE
8
BLACK
6
CONTINUOUS
10
29.4255
20
-114.596
11
29.4255
21
-100.695
0
ARC
8
BLACK
10
29.7255
20
-100.695
40
0.3
50
90
51
180
0
ARC
8
BLACK
10
29.7255
20
-114.596
40
0.3
50
180
51
270
0
ARC
8
BLACK
10
43.1255
20
-114.596
40
0.3
50
-90
51
-0
0
ARC
8
BLACK
10
43.1255
20
-100.695
40
0.3
50
-0
51
90
0
ARC
8
BLACK
10
43.1255
20
-81.6455
40
0.3
50
-0
51
90
0
ARC
8
BLACK
10
43.1255
20
-95.5455
40
0.3
50
-90
51
-0
0
ARC
8
BLACK
10
29.7255
20
-95.5455
40
0.3
50
180
51
270
0
ARC
8
BLACK
10
29.7255
20
-81.6455
40
0.3
50
90
51
180
0
LINE
8
BLACK
6
CONTINUOUS
10
29.4255
20
-95.5455
11
29.4255
21
-81.6455
0
LINE
8
BLACK
6
CONTINUOUS
10
43.1255
20
-95.8455
11
29.7255
21
-95.8455
0
LINE
8
BLACK
6
CONTINUOUS
10
43.4255
20
-81.6455
11
43.4255
21
-95.5455
0
LINE
8
BLACK
6
CONTINUOUS
10
29.7255
20
-81.3455
11
43.1255
21
-81.3455
0
LINE
8
BLACK
6
CONTINUOUS
10
48.7755
20
-81.3455
11
62.1755
21
-81.3455
0
LINE
8
BLACK
6
CONTINUOUS
10
62.4755
20
-81.6455
11
62.4755
21
-95.5455
0
LINE
8
BLACK
6
CONTINUOUS
10
62.1755
20
-95.8455
11
48.7755
21
-95.8455
0
LINE
8
BLACK
6
CONTINUOUS
10
48.4755
20
-95.5455
11
48.4755
21
-81.6455
0
ARC
8
BLACK
10
48.7755
20
-81.6455
40
0.3
50
90
51
180
0
ARC
8
BLACK
10
48.7755
20
-95.5455
40
0.3
50
180
51
270
0
ARC
8
BLACK
10
62.1755
20
-95.5455
40
0.3
50
-90
51
-0
0
ARC
8
BLACK
10
62.1755
20
-81.6455
40
0.3
50
-0
51
90
0
ARC
8
BLACK
10
83.6067
20
-81.6455
40
0.3
50
-0
51
90
0
ARC
8
BLACK
10
83.6067
20
-95.5455
40
0.3
50
-90
51
-0
0
ARC
8
BLACK
10
70.2067
20
-95.5455
40
0.3
50
180
51
270
0
ARC
8
BLACK
10
70.2067
20
-81.6455
40
0.3
50
90
51
180
0
LINE
8
BLACK
6
CONTINUOUS
10
69.9068
20
-95.5455
11
69.9068
21
-81.6455
0
LINE
8
BLACK
6
CONTINUOUS
10
83.6067
20
-95.8455
11
70.2067
21
-95.8455
0
LINE
8
BLACK
6
CONTINUOUS
10
83.9068
20
-81.6455
11
83.9068
21
-95.5455
0
LINE
8
BLACK
6
CONTINUOUS
10
70.2067
20
-81.3455
11
83.6067
21
-81.3455
0
LINE
8
BLACK
6
CONTINUOUS
10
88.7805
20
-62.2955
11
102.18
21
-62.2955
0
LINE
8
BLACK
6
CONTINUOUS
10
102.48
20
-62.5955
11
102.48
21
-76.4955
0
LINE
8
BLACK
6
CONTINUOUS
10
102.18
20
-76.7955
11
88.7805
21
-76.7955
0
LINE
8
BLACK
6
CONTINUOUS
10
88.4805
20
-76.4955
11
88.4805
21
-62.5955
0
ARC
8
BLACK
10
88.7805
20
-62.5955
40
0.3
50
90
51
180
0
ARC
8
BLACK
10
88.7805
20
-76.4955
40
0.3
50
180
51
270
0
ARC
8
BLACK
10
102.18
20
-76.4955
40
0.3
50
-90
51
-0
0
ARC
8
BLACK
10
102.18
20
-62.5955
40
0.3
50
-0
51
90
0
LINE
8
BLACK
6
CONTINUOUS
10
24.0105
20
-62.2955
11
37.4105
21
-62.2955
0
LINE
8
BLACK
6
CONTINUOUS
10
37.7105
20
-62.5955
11
37.7105
21
-76.4955
0
LINE
8
BLACK
6
CONTINUOUS
10
37.4105
20
-76.7955
11
24.0105
21
-76.7955
0
LINE
8
BLACK
6
CONTINUOUS
10
23.7105
20
-76.4955
11
23.7105
21
-62.5955
0
ARC
8
BLACK
10
24.0105
20
-62.5955
40
0.3
50
90
51
180
0
ARC
8
BLACK
10
24.0105
20
-76.4955
40
0.3
50
180
51
270
0
ARC
8
BLACK
10
37.4105
20
-76.4955
40
0.3
50
-90
51
-0
0
ARC
8
BLACK
10
37.4105
20
-62.5955
40
0.3
50
-0
51
90
0
ARC
8
BLACK
10
97.418
20
-43.5455
40
0.3
50
-0
51
90
0
ARC
8
BLACK
10
97.418
20
-57.4455
40
0.3
50
-90
51
-0
0
ARC
8
BLACK
10
84.018
20
-57.4455
40
0.3
50
180
51
270
0
ARC
8
BLACK
10
84.018
20
-43.5455
40
0.3
50
90
51
180
0
LINE
8
BLACK
6
CONTINUOUS
10
83.718
20
-57.4455
11
83.718
21
-43.5455
0
LINE
8
BLACK
6
CONTINUOUS
10
97.418
20
-57.7455
11
84.018
21
-57.7455
0
LINE
8
BLACK
6
CONTINUOUS
10
97.718
20
-43.5455
11
97.718
21
-57.4455
0
LINE
8
BLACK
6
CONTINUOUS
10
84.018
20
-43.2455
11
97.418
21
-43.2455
0
LINE
8
BLACK
6
CONTINUOUS
10
57.8242
20
-43.2455
11
71.2242
21
-43.2455
0
LINE
8
BLACK
6
CONTINUOUS
10
71.5242
20
-43.5455
11
71.5242
21
-57.4455
0
LINE
8
BLACK
6
CONTINUOUS
10
71.2242
20
-57.7455
11
57.8242
21
-57.7455
0
LINE
8
BLACK
6
CONTINUOUS
10
57.5242
20
-57.4455
11
57.5242
21
-43.5455
0
ARC
8
BLACK
10
57.8242
20
-43.5455
40
0.3
50
90
51
180
0
ARC
8
BLACK
10
57.8242
20
-57.4455
40
0.3
50
180
51
270
0
ARC
8
BLACK
10
71.2242
20
-57.4455
40
0.3
50
-90
51
-0
0
ARC
8
BLACK
10
71.2242
20
-43.5455
40
0.3
50
-0
51
90
0
ARC
8
BLACK
10
43.1255
20
-43.5455
40
0.3
50
-0
51
90
0
ARC
8
BLACK
10
43.1255
20
-57.4455
40
0.3
50
-90
51
-0
0
ARC
8
BLACK
10
29.7255
20
-57.4455
40
0.3
50
180
51
270
0
ARC
8
BLACK
10
29.7255
20
-43.5455
40
0.3
50
90
51
180
0
LINE
8
BLACK
6
CONTINUOUS
10
29.4255
20
-57.4455
11
29.4255
21
-43.5455
0
LINE
8
BLACK
6
CONTINUOUS
10
43.1255
20
-57.7455
11
29.7255
21
-57.7455
0
LINE
8
BLACK
6
CONTINUOUS
10
43.4255
20
-43.5455
11
43.4255
21
-57.4455
0
LINE
8
BLACK
6
CONTINUOUS
10
29.7255
20
-43.2455
11
43.1255
21
-43.2455
0
ARC
8
BLACK
10
97.418
20
-24.4955
40
0.3
50
-0
51
90
0
ARC
8
BLACK
10
97.418
20
-38.3955
40
0.3
50
-90
51
-0
0
ARC
8
BLACK
10
84.018
20
-38.3955
40
0.3
50
180
51
270
0
ARC
8
BLACK
10
84.018
20
-24.4955
40
0.3
50
90
51
180
0
LINE
8
BLACK
6
CONTINUOUS
10
83.718
20
-38.3955
11
83.718
21
-24.4955
0
LINE
8
BLACK
6
CONTINUOUS
10
97.418
20
-38.6955
11
84.018
21
-38.6955
0
LINE
8
BLACK
6
CONTINUOUS
10
97.718
20
-24.4955
11
97.718
21
-38.3955
0
LINE
8
BLACK
6
CONTINUOUS
10
84.018
20
-24.1955
11
97.418
21
-24.1955
0
LINE
8
BLACK
6
CONTINUOUS
10
60.2055
20
-24.1955
11
73.6055
21
-24.1955
0
LINE
8
BLACK
6
CONTINUOUS
10
73.9055
20
-24.4955
11
73.9055
21
-38.3955
0
LINE
8
BLACK
6
CONTINUOUS
10
73.6055
20
-38.6955
11
60.2055
21
-38.6955
0
LINE
8
BLACK
6
CONTINUOUS
10
59.9055
20
-38.3955
11
59.9055
21
-24.4955
0
ARC
8
BLACK
10
60.2055
20
-24.4955
40
0.3
50
90
51
180
0
ARC
8
BLACK
10
60.2055
20
-38.3955
40
0.3
50
180
51
270
0
ARC
8
BLACK
10
73.6055
20
-38.3955
40
0.3
50
-90
51
-0
0
ARC
8
BLACK
10
73.6055
20
-24.4955
40
0.3
50
-0
51
90
0
ARC
8
BLACK
10
47.888
20
-24.4955
40
0.3
50
-0
51
90
0
ARC
8
BLACK
10
47.888
20
-38.3955
40
0.3
50
-90
51
-0
0
ARC
8
BLACK
10
34.488
20
-38.3955
40
0.3
50
180
51
270
0
ARC
8
BLACK
10
34.488
20
-24.4955
40
0.3
50
90
51
180
0
LINE
8
BLACK
6
CONTINUOUS
10
34.188
20
-38.3955
11
34.188
21
-24.4955
0
LINE
8
BLACK
6
CONTINUOUS
10
47.888
20
-38.6955
11
34.488
21
-38.6955
0
LINE
8
BLACK
6
CONTINUOUS
10
48.188
20
-24.4955
11
48.188
21
-38.3955
0
LINE
8
BLACK
6
CONTINUOUS
10
34.488
20
-24.1955
11
47.888
21
-24.1955
  0
ENDSEC
  0
EOF
