  0
SECTION
  2
HEADER
  9
$ANGBASE
  50
0.0
  9
$ANGDIR
  70
1
  9
$MEASUREMENT
  70
1
  0
ENDSEC
  0
SECTION
  2
TABLES
  0
TABLE
  2
LTYPE
  70
4
  0
LTYPE
  5
40F
  2
CONTINUOUS
  70
0
  3
Solid line
  72
65
  73
0
  40
0.0
  0
LTYPE
  5
410
  2
DASHDOT
 70
0
  3
Dash Dot ____ _ ____ _
 72
65
 73
4
 40
2.0
 49
1.25
 49
-0.25
 49
0.25
 49
-0.25
  0
LTYPE
  5
411
  2
DASHED
 70
0
  3
Dashed __ __ __ __ __
 72
65
 73
2
 40
0.75
 49
0.5
 49
-0.25
  0
LTYPE
  5
43B
  2
DOTTED
 70
0
  3
Dotted .  .  .  .
 72
65
 73
2
 40
0.2
 49
0.0
 49
-0.2
  0
ENDTAB
  0
TABLE
  2
STYLE
  70
4
  0
STYLE
  2
KICAD
  70
0
  40
0
  41
1
  42
1
  50
0
  71
0
  3
isocp.shx
  0
STYLE
  2
KICADB
  70
0
  40
0
  41
1
  42
1
  50
0
  71
0
  3
isocp.shx
  0
STYLE
  2
KICADI
  70
0
  40
0
  41
1
  42
1
  50
15
  71
0
  3
isocp.shx
  0
STYLE
  2
KICADBI
  70
0
  40
0
  41
1
  42
1
  50
15
  71
0
  3
isocp.shx
  0
ENDTAB
  0
TABLE
  2
LAYER
  70
1
  0
LAYER
  2
BLACK
  70
0
  62
7
  6
CONTINUOUS
  0
ENDTAB
  0
ENDSEC
  0
SECTION
  2
ENTITIES
0
ARC
8
BLACK
10
184.742
20
-35.19
40
0.5
50
90
51
270
0
ARC
8
BLACK
10
191.032
20
-20.69
40
0.5
50
90
51
270
0
LINE
8
BLACK
6
CONTINUOUS
10
186.522
20
-34.69
11
184.742
21
-34.69
0
ARC
8
BLACK
10
191.032
20
-35.19
40
0.5
50
90
51
270
0
LINE
8
BLACK
6
CONTINUOUS
10
186.532
20
-35.69
11
184.742
21
-35.69
0
LINE
8
BLACK
6
CONTINUOUS
10
192.232
20
-20.19
11
191.032
21
-20.19
0
ARC
8
BLACK
10
184.742
20
-20.69
40
0.5
50
90
51
270
0
ARC
8
BLACK
10
186.522
20
-20.69
40
0.5
50
-90
51
90
0
ARC
8
BLACK
10
192.232
20
-20.69
40
0.5
50
-90
51
90
0
LINE
8
BLACK
6
CONTINUOUS
10
186.522
20
-20.19
11
184.742
21
-20.19
0
LINE
8
BLACK
6
CONTINUOUS
10
192.242
20
-21.19
11
191.032
21
-21.19
0
LINE
8
BLACK
6
CONTINUOUS
10
186.532
20
-21.19
11
184.742
21
-21.19
0
LINE
8
BLACK
6
CONTINUOUS
10
192.242
20
-35.69
11
191.032
21
-35.69
0
ARC
8
BLACK
10
192.232
20
-35.19
40
0.5
50
-90
51
90
0
LINE
8
BLACK
6
CONTINUOUS
10
192.232
20
-34.69
11
191.032
21
-34.69
0
ARC
8
BLACK
10
186.522
20
-35.19
40
0.5
50
-90
51
90
0
ARC
8
BLACK
10
225.352
20
-35.11
40
0.5
50
-90
51
90
0
LINE
8
BLACK
6
CONTINUOUS
10
224.142
20
-34.61
11
225.352
21
-34.61
0
ARC
8
BLACK
10
224.153
20
-35.11
40
0.5
50
90
51
270
0
LINE
8
BLACK
6
CONTINUOUS
10
224.153
20
-35.61
11
225.352
21
-35.61
0
ARC
8
BLACK
10
225.352
20
-20.61
40
0.5
50
-90
51
90
0
LINE
8
BLACK
6
CONTINUOUS
10
224.153
20
-21.11
11
225.352
21
-21.11
0
LINE
8
BLACK
6
CONTINUOUS
10
224.142
20
-20.11
11
225.352
21
-20.11
0
ARC
8
BLACK
10
224.153
20
-20.61
40
0.5
50
90
51
270
0
ARC
8
BLACK
10
231.642
20
-20.61
40
0.5
50
-90
51
90
0
ARC
8
BLACK
10
229.862
20
-20.61
40
0.5
50
90
51
270
0
LINE
8
BLACK
6
CONTINUOUS
10
229.862
20
-21.11
11
231.642
21
-21.11
0
LINE
8
BLACK
6
CONTINUOUS
10
229.852
20
-20.11
11
231.642
21
-20.11
0
LINE
8
BLACK
6
CONTINUOUS
10
229.862
20
-35.61
11
231.642
21
-35.61
0
LINE
8
BLACK
6
CONTINUOUS
10
229.852
20
-34.61
11
231.642
21
-34.61
0
ARC
8
BLACK
10
229.862
20
-35.11
40
0.5
50
90
51
270
0
ARC
8
BLACK
10
231.642
20
-35.11
40
0.5
50
-90
51
90
0
ARC
8
BLACK
10
368.493
20
-38.4
40
0.3
50
180
51
270
0
ARC
8
BLACK
10
381.892
20
-38.4
40
0.3
50
-90
51
-0
0
ARC
8
BLACK
10
381.892
20
-24.5
40
0.3
50
-0
51
90
0
ARC
8
BLACK
10
368.493
20
-24.5
40
0.3
50
90
51
180
0
LINE
8
BLACK
6
CONTINUOUS
10
381.892
20
-24.2
11
368.493
21
-24.2
0
LINE
8
BLACK
6
CONTINUOUS
10
382.192
20
-38.4
11
382.192
21
-24.5
0
LINE
8
BLACK
6
CONTINUOUS
10
368.493
20
-38.7
11
381.892
21
-38.7
0
LINE
8
BLACK
6
CONTINUOUS
10
368.192
20
-24.5
11
368.192
21
-38.4
0
CIRCLE
8
BLACK
10
309.192
20
-61.45
40
1.1
0
CIRCLE
8
BLACK
10
390.192
20
-22.45
40
1.1
0
CIRCLE
8
BLACK
10
398.192
20
-114.45
40
1.1
0
CIRCLE
8
BLACK
10
246.192
20
-126.45
40
1.1
0
CIRCLE
8
BLACK
10
230.192
20
-41.45
40
1.1
0
CIRCLE
8
BLACK
10
107.188
20
-61.4455
40
1.1
0
CIRCLE
8
BLACK
10
26.188
20
-22.4455
40
1.1
0
CIRCLE
8
BLACK
10
18.188
20
-114.445
40
1.1
0
CIRCLE
8
BLACK
10
170.188
20
-126.445
40
1.1
0
CIRCLE
8
BLACK
10
186.188
20
-41.4455
40
1.1
0
LINE
8
BLACK
6
CONTINUOUS
10
391.092
20
-89.55
11
391.092
21
-83.35
0
LINE
8
BLACK
6
CONTINUOUS
10
397.292
20
-89.55
11
391.092
21
-89.55
0
LINE
8
BLACK
6
CONTINUOUS
10
397.292
20
-83.35
11
397.292
21
-89.55
0
LINE
8
BLACK
6
CONTINUOUS
10
391.092
20
-83.35
11
397.292
21
-83.35
0
LINE
8
BLACK
6
CONTINUOUS
10
391.092
20
-108.55
11
391.092
21
-102.35
0
LINE
8
BLACK
6
CONTINUOUS
10
397.292
20
-108.55
11
391.092
21
-108.55
0
LINE
8
BLACK
6
CONTINUOUS
10
397.292
20
-102.35
11
397.292
21
-108.55
0
LINE
8
BLACK
6
CONTINUOUS
10
391.092
20
-102.35
11
397.292
21
-102.35
0
ARC
8
BLACK
10
191.188
20
-38.4455
40
1
50
90
51
180
0
ARC
8
BLACK
10
180.188
20
-111.445
40
10
50
-53.1301
51
3.43359e-06
0
ARC
8
BLACK
10
158.188
20
-130.445
40
9.21954
50
-102.529
51
-40.6013
0
ARC
8
BLACK
10
17.188
20
-115.445
40
3
50
180
51
270
0
ARC
8
BLACK
10
25.188
20
-21.4455
40
3
50
90
51
180
0
LINE
8
BLACK
6
CONTINUOUS
10
14.188
20
-115.445
11
22.188
21
-21.4455
0
LINE
8
BLACK
6
CONTINUOUS
10
156.188
20
-139.445
11
17.188
21
-118.445
0
LINE
8
BLACK
6
CONTINUOUS
10
186.188
20
-119.445
11
165.188
21
-136.445
0
LINE
8
BLACK
6
CONTINUOUS
10
190.188
20
-38.4455
11
190.188
21
-111.445
0
LINE
8
BLACK
6
CONTINUOUS
10
25.188
20
-18.4455
11
187.188
21
-18.4455
0
ARC
8
BLACK
10
194.188
20
-36.4455
40
1
50
-90
51
-0
0
ARC
8
BLACK
10
194.188
20
-19.4455
40
1
50
-0
51
90
0
LINE
8
BLACK
6
CONTINUOUS
10
191.188
20
-37.4455
11
194.188
21
-37.4455
0
LINE
8
BLACK
6
CONTINUOUS
10
195.188
20
-19.4455
11
195.188
21
-36.4455
0
LINE
8
BLACK
6
CONTINUOUS
10
187.188
20
-18.4455
11
194.188
21
-18.4455
0
LINE
8
BLACK
6
CONTINUOUS
10
266.192
20
-14.45
11
266.192
21
-17.45
0
LINE
8
BLACK
6
CONTINUOUS
10
278.192
20
-14.45
11
278.192
21
-17.45
0
ARC
8
BLACK
10
279.192
20
-17.45
40
1
50
180
51
270
0
ARC
8
BLACK
10
265.192
20
-17.45
40
1
50
-90
51
-0
0
ARC
8
BLACK
10
277.192
20
-14.45
40
1
50
-0
51
90
0
ARC
8
BLACK
10
267.192
20
-14.45
40
1
50
90
51
180
0
LINE
8
BLACK
6
CONTINUOUS
10
277.192
20
-13.45
11
267.192
21
-13.45
0
LINE
8
BLACK
6
CONTINUOUS
10
221.192
20
-36.45
11
221.192
21
-19.45
0
LINE
8
BLACK
6
CONTINUOUS
10
225.192
20
-37.45
11
222.192
21
-37.45
0
ARC
8
BLACK
10
225.192
20
-38.45
40
1
50
-0
51
90
0
ARC
8
BLACK
10
222.192
20
-36.45
40
1
50
180
51
270
0
ARC
8
BLACK
10
222.192
20
-19.45
40
1
50
90
51
180
0
LINE
8
BLACK
6
CONTINUOUS
10
222.192
20
-18.45
11
265.192
21
-18.45
0
ARC
8
BLACK
10
236.192
20
-111.45
40
10
50
-180
51
-126.87
0
ARC
8
BLACK
10
258.193
20
-130.45
40
9.21954
50
-139.399
51
-77.4712
0
ARC
8
BLACK
10
399.192
20
-115.45
40
3
50
-90
51
-0
0
ARC
8
BLACK
10
391.192
20
-21.45
40
3
50
-0
51
90
0
LINE
8
BLACK
6
CONTINUOUS
10
402.192
20
-115.45
11
394.192
21
-21.45
0
LINE
8
BLACK
6
CONTINUOUS
10
260.192
20
-139.45
11
399.192
21
-118.45
0
LINE
8
BLACK
6
CONTINUOUS
10
230.192
20
-119.45
11
251.193
21
-136.45
0
LINE
8
BLACK
6
CONTINUOUS
10
226.192
20
-38.45
11
226.192
21
-111.45
0
LINE
8
BLACK
6
CONTINUOUS
10
391.192
20
-18.45
11
279.192
21
-18.45
  0
ENDSEC
  0
EOF
