  0
SECTION
  2
HEADER
  9
$ANGBASE
  50
0.0
  9
$ANGDIR
  70
1
  9
$MEASUREMENT
  70
1
  0
ENDSEC
  0
SECTION
  2
TABLES
  0
TABLE
  2
LTYPE
  70
4
  0
LTYPE
  5
40F
  2
CONTINUOUS
  70
0
  3
Solid line
  72
65
  73
0
  40
0.0
  0
LTYPE
  5
410
  2
DASHDOT
 70
0
  3
Dash Dot ____ _ ____ _
 72
65
 73
4
 40
2.0
 49
1.25
 49
-0.25
 49
0.25
 49
-0.25
  0
LTYPE
  5
411
  2
DASHED
 70
0
  3
Dashed __ __ __ __ __
 72
65
 73
2
 40
0.75
 49
0.5
 49
-0.25
  0
LTYPE
  5
43B
  2
DOTTED
 70
0
  3
Dotted .  .  .  .
 72
65
 73
2
 40
0.2
 49
0.0
 49
-0.2
  0
ENDTAB
  0
TABLE
  2
STYLE
  70
4
  0
STYLE
  2
KICAD
  70
0
  40
0
  41
1
  42
1
  50
0
  71
0
  3
isocp.shx
  0
STYLE
  2
KICADB
  70
0
  40
0
  41
1
  42
1
  50
0
  71
0
  3
isocp.shx
  0
STYLE
  2
KICADI
  70
0
  40
0
  41
1
  42
1
  50
15
  71
0
  3
isocp.shx
  0
STYLE
  2
KICADBI
  70
0
  40
0
  41
1
  42
1
  50
15
  71
0
  3
isocp.shx
  0
ENDTAB
  0
TABLE
  2
LAYER
  70
1
  0
LAYER
  2
BLACK
  70
0
  62
7
  6
CONTINUOUS
  0
ENDTAB
  0
ENDSEC
  0
SECTION
  2
ENTITIES
0
CIRCLE
8
BLACK
10
390.192
20
-22.45
40
1.1
0
CIRCLE
8
BLACK
10
309.192
20
-61.45
40
1.1
0
CIRCLE
8
BLACK
10
398.192
20
-114.45
40
1.1
0
CIRCLE
8
BLACK
10
246.192
20
-126.45
40
1.1
0
CIRCLE
8
BLACK
10
230.192
20
-41.45
40
1.1
0
CIRCLE
8
BLACK
10
186.148
20
-41.5055
40
1.1
0
CIRCLE
8
BLACK
10
107.148
20
-61.5055
40
1.1
0
CIRCLE
8
BLACK
10
170.148
20
-126.505
40
1.1
0
CIRCLE
8
BLACK
10
18.148
20
-114.505
40
1.1
0
CIRCLE
8
BLACK
10
26.148
20
-22.5055
40
1.1
0
LINE
8
BLACK
6
CONTINUOUS
10
266.192
20
-21.45
11
266.192
21
-19.45
0
LINE
8
BLACK
6
CONTINUOUS
10
277.192
20
-22.45
11
267.192
21
-22.45
0
LINE
8
BLACK
6
CONTINUOUS
10
278.192
20
-19.45
11
278.192
21
-21.45
0
ARC
8
BLACK
10
277.192
20
-21.45
40
1
50
-90
51
-0
0
ARC
8
BLACK
10
267.192
20
-21.45
40
1
50
180
51
270
0
ARC
8
BLACK
10
279.192
20
-19.45
40
1
50
90
51
180
0
ARC
8
BLACK
10
265.192
20
-19.45
40
1
50
-0
51
90
0
LINE
8
BLACK
6
CONTINUOUS
10
233.192
20
-37.45
11
227.192
21
-37.45
0
LINE
8
BLACK
6
CONTINUOUS
10
234.192
20
-19.45
11
234.192
21
-36.45
0
ARC
8
BLACK
10
235.192
20
-19.45
40
1
50
90
51
180
0
ARC
8
BLACK
10
233.192
20
-36.45
40
1
50
-90
51
-0
0
ARC
8
BLACK
10
227.192
20
-38.45
40
1
50
90
51
180
0
LINE
8
BLACK
6
CONTINUOUS
10
183.148
20
-37.5055
11
189.148
21
-37.5055
0
LINE
8
BLACK
6
CONTINUOUS
10
182.148
20
-19.5055
11
182.148
21
-36.5055
0
ARC
8
BLACK
10
189.148
20
-38.5055
40
1
50
-0
51
90
0
ARC
8
BLACK
10
183.148
20
-36.5055
40
1
50
180
51
270
0
ARC
8
BLACK
10
181.148
20
-19.5055
40
1
50
-0
51
90
0
ARC
8
BLACK
10
180.148
20
-111.505
40
10
50
-53.1301
51
3.43359e-06
0
ARC
8
BLACK
10
158.148
20
-130.505
40
9.21954
50
-102.529
51
-40.6013
0
ARC
8
BLACK
10
17.148
20
-115.505
40
3
50
180
51
270
0
ARC
8
BLACK
10
25.148
20
-21.5055
40
3
50
90
51
180
0
LINE
8
BLACK
6
CONTINUOUS
10
14.148
20
-115.505
11
22.148
21
-21.5055
0
LINE
8
BLACK
6
CONTINUOUS
10
156.148
20
-139.505
11
17.148
21
-118.505
0
LINE
8
BLACK
6
CONTINUOUS
10
186.148
20
-119.505
11
165.148
21
-136.505
0
LINE
8
BLACK
6
CONTINUOUS
10
190.148
20
-38.5055
11
190.148
21
-111.505
0
LINE
8
BLACK
6
CONTINUOUS
10
25.148
20
-18.5055
11
181.148
21
-18.5055
0
LINE
8
BLACK
6
CONTINUOUS
10
235.192
20
-18.45
11
265.192
21
-18.45
0
ARC
8
BLACK
10
236.192
20
-111.45
40
10
50
-180
51
-126.87
0
ARC
8
BLACK
10
258.193
20
-130.45
40
9.21954
50
-139.399
51
-77.4712
0
ARC
8
BLACK
10
399.192
20
-115.45
40
3
50
-90
51
-0
0
ARC
8
BLACK
10
391.192
20
-21.45
40
3
50
-0
51
90
0
LINE
8
BLACK
6
CONTINUOUS
10
402.192
20
-115.45
11
394.192
21
-21.45
0
LINE
8
BLACK
6
CONTINUOUS
10
260.192
20
-139.45
11
399.192
21
-118.45
0
LINE
8
BLACK
6
CONTINUOUS
10
230.192
20
-119.45
11
251.193
21
-136.45
0
LINE
8
BLACK
6
CONTINUOUS
10
226.192
20
-38.45
11
226.192
21
-111.45
0
LINE
8
BLACK
6
CONTINUOUS
10
391.192
20
-18.45
11
279.192
21
-18.45
  0
ENDSEC
  0
EOF
